<?xml version="1.0" encoding="UTF-8"?>
<svg xmlns="http://www.w3.org/2000/svg" xmlns:xlink="http://www.w3.org/1999/xlink" width="48px" height="48px" viewBox="0 0 48 48" version="1.1">
<g id="surface496787">
<path style=" stroke:none;fill-rule:nonzero;fill:#373737;fill-opacity:1;" d="M 24 48 C 10.746094 48 0 37.253906 0 24 C 0 10.746094 10.746094 0 24 0 C 37.253906 0 48 10.746094 48 24 C 48 37.253906 37.253906 48 24 48 Z M 24 48 "/>
<path style=" stroke:none;fill-rule:nonzero;fill:rgb(100%,100%,100%);fill-opacity:1;" d="M 24 38.800781 L 17.769531 20.882812 L 30.230469 20.882812 Z M 24 38.800781 "/>
<path style=" stroke:none;fill-rule:nonzero;fill:rgb(100%,100%,100%);fill-opacity:1;" d="M 24 38.800781 L 38.019531 20.882812 L 30.230469 20.882812 Z M 24 38.800781 "/>
<path style=" stroke:none;fill-rule:nonzero;fill:rgb(100%,100%,100%);fill-opacity:1;" d="M 34.125 9.199219 L 38.019531 20.882812 L 30.230469 20.882812 Z M 34.125 9.199219 "/>
<path style=" stroke:none;fill-rule:nonzero;fill:rgb(100%,100%,100%);fill-opacity:1;" d="M 24 38.800781 L 38.019531 20.882812 L 40.359375 27.117188 Z M 24 38.800781 "/>
<path style=" stroke:none;fill-rule:nonzero;fill:rgb(100%,100%,100%);fill-opacity:1;" d="M 24 38.800781 L 9.980469 20.882812 L 17.769531 20.882812 Z M 24 38.800781 "/>
<path style=" stroke:none;fill-rule:nonzero;fill:rgb(100%,100%,100%);fill-opacity:1;" d="M 13.875 9.199219 L 9.980469 20.882812 L 17.769531 20.882812 Z M 13.875 9.199219 "/>
<path style=" stroke:none;fill-rule:nonzero;fill:rgb(100%,100%,100%);fill-opacity:1;" d="M 24 38.800781 L 9.980469 20.882812 L 7.640625 27.117188 Z M 24 38.800781 "/>
</g>
</svg>
