<?xml version="1.0" encoding="utf-8"?>

<!DOCTYPE svg PUBLIC "-//W3C//DTD SVG 1.1//EN" "http://www.w3.org/Graphics/SVG/1.1/DTD/svg11.dtd">
<svg version="1.1" id="Layer_1" xmlns="http://www.w3.org/2000/svg" xmlns:xlink="http://www.w3.org/1999/xlink" x="0px" y="0px"
	 viewBox="0 0 1414.896 1634.808" enable-background="new 0 0 1414.896 1634.808" xml:space="preserve">
<g>
	<path d="M756.091,676.382c3.704-14.406,5.688-177.606,5.659-178.695c-0.025-0.961-0.2-2.144-0.258-3.307
		c-2.084-3.403-0.664-7.903-0.572-11.722c0.031-1.271,0.631-2.163,1.456-2.7c-1.145-8.513,4.076-29.401-0.259-44.793
		c-4.561,16.379-2.276,42.906-3.515,49.337c-0.075,0.389-0.237,0.765-0.464,1.118c0.065,1.477-0.089,2.91-0.475,4.443
		c-0.075,0.296-0.164,0.593-0.255,0.89c0.3,0.746,0.541,1.515,0.692,2.291c2.394,1.801,0.934,5.824,0.699,8.166
		C756.334,525.962,754.789,666.942,756.091,676.382z"/>
	<path d="M1397.595,607.096c-16.053-1.475-30.408-11.983-47.186-8.489c0.026,0.022,0.052,0.041,0.078,0.063
		c-15.226-11.731-34.465-10.523-51.747-15.625c-5.987-1.767-238.45,310.311-253.103,311.221
		c-34.437,2.138-46.576,8.176-42.444-5.323c9.054-29.578,11.371-60.583,21.225-90.206c26.752-80.421,20.418-104.962,43.011-143.828
		c15.436-26.558-50.549-8.288-229.417,3.572c-13.64,0.905-9.8,4.172-9.052-114.982c0.614-97.989,3.935-93.6,0.466-113.402
		c-4.678-26.707-83.003-29.838-109.386-30.264c-25.447-0.411-13.724,0.913-21.353-252.416
		c-1.268-42.102,14.546-59.806,55.981-129.015c-3.841-0.783-5.505-0.088-6.28,1.16c-48.844,78.64-57.286,87.532-54.751,109.499
		c0,0,2.078,223.869,4.838,257.116c0.295,3.558,3.818,11.91-4.57,12.472c-13.544,0.907-3.227-4.282-11.349-231.822
		c-2.111-59.145,7.554-34.567-47.302-129.978c-1.578-2.744-2.166-6.653-8.251-5.284c43.186,75.342,49.505,82.708,49.845,100.632
		c0,0.001,4.781,255.358,4.781,255.359c0.48,20.745-15.355,8.704-74.552,23.565c-39.937,10.026-28.016,9.132-28.016,235.852
		c-1.279,0.133-2.558,0.265-3.837,0.398c-17.829-29.714-19.325-34.614-25.811-33.062c0,0-343.354,30.606-329.784,30.784
		c-23.337-0.308-3.509,13.653,59.973,136.005c-103.225-86.445-5.043-67.391-255.178-71.211c-3.134-0.048-7.605-2.329-9.103,1.893
		c-1.902,5.359,236.056,209.042,245.692,222.206c1.72,0.89,13.504,8.977,19.168,15.544c53.624,28.118,130.701,15.325,275.197,9.534
		c162.929-6.529,149.244-11.753,149.276,12.272c0.139,104.174,2.533,100.955-5.271,101.25c-6.525,0.246-6.325,6.977-6.857-87.411
		c-0.115-20.302,10.94-13.952-214.365-10.741c-68.376,0.975-73.38-4.102-72.518,10.783c19.902,343.519-8.732,331.45,40.385,331.808
		c3.401,0.025,242.601,1.252,242.601,1.252c16.591,0.077,6.996,5.132,5.418-182.854c-0.485-57.767-1.955-58.478,5.592-58.64
		c8.351-0.178,6.01-3.344,8.773,103.321c3.876,149.647,9.509,148.794-9.782,148.531c-0.005,0-264.119-3.657-264.119-3.657
		c-14.04,0.756-101.391-21.609-109.549-30.517c23.539-3.49,19.3,6.816,14.455-102.574c-0.047-1.051-6.889-187.891-6.614-202.735
		c0.298-16.008-18.85-4.867-20.787-22.11c-0.13-1.153-7.3-6.092-6.85,3.707c6.543,142.499,5.932,135.969,3.581,137.773
		c0.247,2.391,0.328,4.809,0.229,7.238c2.983,2.414,2.455-4.547,7.903,135.447c0.168,4.329,1.398,8.878-5.023,11.624
		c-19.921,8.518-31.654,22.517-27.928,45.912c1.066,6.694-6.97,37.089,8.856,80.942c6.498,18.008,21.306,8.231,24.749-6.364
		c14.55-61.676-11.021-83.404,6.378-79.149c81.159,19.85,84.107,21.65,83.176,40.049c-0.523,10.339-16.465-2.869-20.494,4.291
		c-2.581,4.587,1.163,8.242,1.723,12.347c0.438,3.211,3.114,3.647,5.967,2.505c35.116-14.054,41.363-14.726,40.897-23.051
		c-0.706-12.604,13.212-10.447,14.399,0.032c8.202,72.404,28.182-41.57-53.586,277.053h7.78
		c47.468-179.332,42.84-166.002,60.702-217.034c22.365,18.766-12.454,57.898-47.736,217.034h5.186
		c17.909-65.316,43.002-166.008,56.457-192.143c6.643,6.926,9.857,14.098,7.599,22.316c-7.587,27.61-42.276,142.369-45.904,169.827
		h5.186c3.278-22.157,41.121-154.316,46.632-166.832c22.627,21.513,67.824,95.507,204.2,120.594
		c8.668,1.595,11.111,4.979,13.02,12.368c5.816,22.518,48.359,24.973,50.443,2.9c1.958-20.73,15.653-18.419,49.608-31.179
		c97.834-36.768,136.411-116.008,161.396-152.989c8.022,10.654-1.023-2.02,62.883,194.395c1.047,3.217,2.166,7.74,6.654,5.615
		c6.841-3.24-69.996-219.252-61.21-222.936c8.674-3.637,5.023,5.869,23.399,64.666c2.853,9.13,46.058,146.92,53.77,159.481
		c-3.811-20.741-53.543-176.815-66.169-222.956c-13.516-49.393-2.908-31.734-5.457-55.627c-0.961-9.008,2.687-12.687,11.2-12.949
		c42.592-1.308,82.372-16.41,123.501-24.909c22.563-4.662,11.156-6.571,15.601-166.085c4.389-157.49-12.96-173.292,13.828-194.771
		c20.319-16.292,4.38,1.566,247.532-310.085C1398.342,613.219,1402.375,607.535,1397.595,607.096z M688.488,1151.95
		c1.065,15.653,5.924,16.24-26.016,14.902c-5.881-0.247-4.676-5.011-4.676-20.481c-0.14-0.004-0.279-0.008-0.418-0.011
		c-0.163-3.321-1.422-17.607,2.749-14.694c8.097,5.657,15.494-1.738,23.211-0.769c0.413,0.052,0.987-0.236,1.248-0.044
		C692.318,1136.563,688.013,1144.963,688.488,1151.95z M662.402,1126.318c-7.432-1.495-6.796-7.019-6.249-11.915
		c1.161-10.382-6.515-23.238,4.504-30.496c5.303-3.493,14.759-0.924,22.32-0.656c4.656,0.165,4.757,4.176,4.863,7.571
		C688.974,1126.879,688.71,1131.611,662.402,1126.318z M655.234,1047.222c0.05-18.871,8.118-24.532,26.573-19.267
		c8.801,2.511,2.561,12.057,5.119,30.793c1.559,11.412-2.576,15.256-13.907,14.708
		C651.135,1072.4,655.577,1074.859,655.234,1047.222z M680.655,978.623c7,1.29,5.685,3.449,6.601,23.082l-0.791,0.007
		c0,11.734,5.583,22.414-16.867,22.053c-18.872-0.303-14.287-8.306-15.198-21.925C652.779,977.652,656.792,974.224,680.655,978.623z
		 M621.328,979.393c16.175,1.086,24.66-3.879,27.304,3.664c4.108,11.718,2.511,25.265-1.692,37.643c-1.256,3.698-5,2.483-7.82,2.698
		c-22.798,1.741-26.269-1.671-25.476-24.902C613.65,985.643,611.756,978.751,621.328,979.393z M627.725,1027.745
		c22.629,0.106,22.629,0.106,23.294,26.259c-1.242,10.766,10.197,25.676-33.242,19.763c-6.892-0.938-6.001-11.095-2.547-14.751
		c4.533-4.8,1.976-4.814-0.68-8.65C607.492,1040.172,615.291,1027.687,627.725,1027.745z M646.804,1083.481
		c5.013,0.127,5.49,4.717,5.585,8.662c0.758,31.59,1.885,31.955-4.137,33.595c-6.916,1.884-9.46-2.8-9.164-10.838
		c-4.743,4.753,0.743,12.126-7.234,10.809c-5.937-0.98-14.65,3.218-16.952-4.856c-8.289-29.072,19.777-28.9-5.076-35.997
		C625.178,1081.982,636.05,1083.209,646.804,1083.481z M652.513,1156.912c-0.441,20.328-16.865,8.391-25.47,9.889
		c-11.622,2.023-13.053-3.354-12.774-26.754c0.191-15.986,11.327-8.113,17.07-9.571
		C655.645,1130.252,653.14,1128.013,652.513,1156.912z M570.13,1214.267c0.305-2.839,3.078-3.366,6.019-3.279
		c29.46,0.869,35.268-8.132,36.67,19.861c0.935,18.666,0.934,18.683-21.386,18.324c-7.22-0.116-17.502,1.077-20.21-4.549
		C566.917,1235.683,569.034,1224.484,570.13,1214.267z M568.888,1185.069c-0.235-20.524,9.572-13.727,17.087-14.028
		c25.153-1.011,24.596-0.992,25.449,24.3c0.559,16.581-7.617,12.259-20.599,12.259
		C568.639,1207.406,569.145,1207.4,568.888,1185.069z M519.505,984.599c1.937-4.223,0.754-5.498,66.265-4.33
		c23.296,0.415,23.292,0.643,23.008,24.206c-0.221,18.302-0.221,18.302-18.054,18.714c-31.2,0.722-22.425-0.415-26.006-37.464
		c-0.887,5.031-19.828,7.646-3.906,14.556c0.403,0.175,0.456,2.922-0.155,3.39c-5.989,4.591-8.453,8.252,0.559,12.717
		c3.983,1.973-0.147,14.133-39.656,3.683c-5.019-1.328-5.307-10.328-0.894-15.542C532.062,991.062,513.099,998.567,519.505,984.599z
		 M572.037,1075.481c-4.493-0.918-5.522-3.099-5.448-7.001c0.803-42.151-4.787-42.939,25.778-40.865
		c12.555,0.852,16.087,7.224,16.411,17.71C609.712,1075.252,601.864,1081.575,572.037,1075.481z M542.716,1027.669
		c12.577-0.131,26.974-10.434,15.287,37.101c-3.488,14.183-15.29,9.415-23.831,12.112c-9.896,3.125-14.848,0.138-14.321-10.782
		C521.465,1032.659,509.734,1028.014,542.716,1027.669z M465.883,985.269c0.262-4.037,4.873-3.914,8.432-3.82
		c46.929,1.238,36.166-16.83,41.01,86.247c0.372,7.899-2.61,10.98-10.507,10.313c-31.783-2.684-43.253,8.428-38.454-23.927
		c1.968-13.27-5.674-26.161,6.046-25.816c11.367,0.334-1.202,9.788,7.098,11.136c5.04,0.818,11.844-11.173,5.744-13.932
		c-10.377-4.693-17.998,2.26-19.339-5.644C464.01,1008.611,465.137,996.78,465.883,985.269z M466.628,1085.009
		c0.151-4.874,7.95-4.437,17.505-4.339c38.082,0.391,30.117-4.512,31.366,32.5c0.634,18.78-13.587,6.221-30.579,14.244
		c6.775,0,13.563,0.265,20.328-0.061c15.967-0.767,9.51,19.715,10.105,25.885c1.639,17.034-12.482,5.571-19.477,11.199
		c0.639,1.899,2.071,2.502,3.889,2.798c23.964,3.911,16.789-1.546,18.174,70.09c0.278,14.386-14.465,9.443-44.603,8.783
		c-14.695-0.322-1.929-16.608-3.497-27.801c-0.417-2.978-3.102-7.285,1.891-8.815c3.167-0.97,6.543-0.285,9.603,1.944
		c11.434,8.328,30.12-13.948,20.819-16.892c-3.142-0.995-4.305,1.152-5.471,3.808c-5.51,12.547-16.533,5.856-24.757,5.771
		c-8.874-0.091-5.581-9.172-5.824-14.485c-0.608-13.252-1.932-26.741,0.309-39.915c1.655-9.73,8.076-20.62,1.484-29.588
		C462.136,1112.306,466.258,1096.995,466.628,1085.009z M501.101,1285.318c-9.075,1.948-18.126-5.063-27.621-0.96
		c-6.829,2.952-6.761-30.736-4.202-32.713c4.431-3.423,8.078-2.053,9.643,3.118c5.012,16.563,5.017-11.271,11.373,0.302
		c6.748,12.285,2.822-7.866,18.685-2.98c4.765,1.468,9.238,4.811,8.789,11.208C516.387,1283,523.111,1285.124,501.101,1285.318z
		 M413.038,990.336c-0.357-9.933,25.453-7.946,39.939-8.422c5.773-0.19,7.428,3.397,7.526,8.245
		c0.71,35.175,0.713,33.574-23.614,33.227c-6.585-1.277-17.88,3.78-20.952-2.825C411.906,1011.893,413.405,1000.547,413.038,990.336
		z M414.328,1027.586c5.68,5.775,6.366,18.74,14.709,3.774c4.886-8.765,18.226-3.905,27.489-3.041
		c6.957,0.649,3.836,8.369,4.054,13.071c1.511,32.672,1.364,34.028-8.511,34.987
		C409.962,1080.465,414.328,1080.349,414.328,1027.586z M429.743,1152.435c-7.129,0.035-3.196,10.652-9.595,7.353
		c-6.604-3.405-3.372-14.586-2.674-20.409c1.618-13.51-1.523-23.495-3.007-47.549c-0.895-14.519,7.977-11.285,25.167-11.235
		c31.121,0.089,20.135,4.196,21.875,35.018c0.422,7.494-4.61,6.389-9.368,6.583c-6.224,0.253-6.669-1.997-3.598-6.592
		c2.834-4.238-5.215-6.752-5.588-4.326c-1.647,10.705-11.252,10.305-18.176,15.158c0.282,0.202,0.541,0.421,0.933,0.834
		c48.477,0.133,32.82,3.594,33.935,20.613c3.809,58.105,4.271,56.359-8.738,56.218c-8.782-0.095-17.091-6.512-26.157-1.817
		c-6.328,3.278-6.404-22.449-5.02-32.25c0.835-5.91,1.271-4.056,39.172-4.056C447.07,1158.859,431.153,1169.411,429.743,1152.435z
		 M431.136,1208.397c29.687,3.661,26.193-3.761,30.276,5.406c4.113,9.237-0.417,18.659,1.37,27.969
		c0.777,4.044-3.946,3.148-6.801,3.382c-7.644,0.626-15.619,2.115-17.296-8.753c-1.499,0.696-2.618,0.84-2.893,1.399
		c-12.258,24.909,21.199,1.947,25.885,15.98c3.048,9.128,4.27,19.841-0.475,28.951c-2.705,5.192-9.867,2.862-14.235,1.693
		c-6.498-1.74,3.273-8.777-0.285-13.383c-10.12,0.133-1.374,16.811-16.031,13.191c-11.023-2.722-9.093-2.708-7.403-35.267
		C424.188,1230.865,409.454,1205.722,431.136,1208.397z M504.413,1311.583c-13.612-1.871-27.192,1.546-41.338-3.285
		c-7.527-2.57-18.653,2.374-28.619,2.137c-12.661-0.301-10.494-9.372-11.139-16.219c-0.822-8.72,6.653-5.598,11.087-5.996
		c29.71-2.674,32.008,2.925,29.004,16.532c12.192-21.048,29.61-13.542,44.117-14.551
		C526.938,1288.85,516.599,1313.259,504.413,1311.583z M523.909,1101.673c-8.946-3.209-3.202-10.458-2.995-15.509
		c0.328-8.004,10.263-3.136,17.794-3.316c22.543-0.538,22.543-0.572,24.179,21.847c1.462,20.032,1.462,20.036-17.896,20.054
		c-20.243,0.019-23.024,1.021-24.158-3.657c-0.878-3.62-1.231-7.816,3.392-10.061
		C530.956,1107.763,532.631,1104.801,523.909,1101.673z M539.321,1129.294c23.517,1.124,22.838,1.175,24.729,25.026
		c0.866,10.925-3.215,12.909-12.331,11.624c-16.397-2.311,0.839,4.772-21.087-2.358c-9.105-2.96-7.812-2.512-8.618-12.279
		c-0.209-2.527-1.777-5.68-1.635-8.055C521.501,1124.396,532.613,1128.974,539.321,1129.294z M527.275,1224.445
		c2.835-3.771-4.36-5.583-4.769-9.602c-5.665-55.702,0.847-46.26,20.547-47.457c-0.005-0.006-0.011-0.01-0.016-0.015
		c21.428,2.902,20.723,2.998,21.583,25.993c0.941,25.137-20.128,5.347-27.1,14.675c6.974,5.763,6.869,5.346,16.88,2.816
		c5.66-1.43,10.862,0.84,10.002,7.782c-1.164,9.399,1.558,18.669-2.417,28.722c-1.552,3.927,1.111,16.148,3.787,23.918
		c5.708,16.576-21.195,15.352-38.597,13.234c-3.701-0.451-5.702-5.796-2.002-9.315
		C535.127,1265.726,513.067,1243.343,527.275,1224.445z M566.076,1307.794c-0.424,1-52.998,18.978-40.434-16.207
		c3.244,3.799,4.206,11.526,9.551,2.807c6.92-11.287,17.296-2.256,25.887-2.82C568.874,1291.063,566.5,1306.794,566.076,1307.794z
		 M591.811,1081.229c1.178,0.332,2.361,2.153,3.204,1.94c17.417-4.383,15.07,5.315,15.17,26.03
		c0.081,17.212,0.082,17.212-16.843,16.673c-25.756-0.822-25.756-0.822-26.435-25.667
		C566.502,1085.345,577.245,1077.123,591.811,1081.229z M587.883,1129.972c15.754,0,28.742-2.322,19.795,10.88
		c-1.221,1.802-2.901,4.399-0.918,5.733c8.061,5.425,5.965,13.386,1.567,17.632c-9.665,9.329-24.016-5.07-34.207-1.073
		c-4.148,1.627-6.486-0.705-6.605-5.116C566.743,1129.299,565.21,1129.716,587.883,1129.972z M579.763,1311.682
		c-9.812,0.044-7.717-6.495-8.319-12.302c-1.172-11.309,7.458-9.118,21.683-9.118c0,0.2,0,0.4,0,0.6
		c13.315,0,21.384-1.538,20.318,6.191C612.734,1302.217,621.783,1311.495,579.763,1311.682z M575.042,1285.265
		c-3.874-0.521-4.569-4.654-5.186-8.062c-4.087-22.569-0.979-26.124,22.146-25.116c9.827,0,24.277-2.372,21.298,10.023
		C610.042,1275.66,630.517,1292.731,575.042,1285.265z M636.8,1311.537c-17.215,0-17.308,1.21-18.147-11.116
		c-0.865-12.725,6.786-8.741,21.325-9.811c8.458-0.623,16.02-2.103,15.794,11.274C655.579,1313.238,649.799,1313.193,636.8,1311.537
		z M653.303,1285.463c-6.058-0.951,1.551-6.916-3.734-7.682c-4.267-0.619-5.501,2.372-7.468,5.465
		c-5.044,7.935-13.026,3.019-19.574,3.068c-5.64,0.042-5.263-5.826-5.655-10.008c-2.158-23.097-2.131-23.099,20.901-24.098
		c15.114-0.655,17.76,1.558,17.335,16.677C654.955,1274.335,657.986,1280.589,653.303,1285.463z M654.572,1238.871
		c2.489,15.846-11.309,8.707-16.916,10.27c-23.513,0.35-21.882,2.548-21.041-25.934c0.611-20.696,17.395-9.196,26.078-9.757
		C663.492,1212.105,653.172,1229.961,654.572,1238.871z M618.472,1207.214c-3.875-3.141-2.074-8.031-2.129-12.154
		c-0.326-24.233-0.265-24.243,23.586-23.551c5.654,0.164,12.711-2.044,7.592,8.892c-2.501,5.344,7.223,7.941,7.332,16.558
		c5.598-9.359-1.241-19.83,5.536-23.567c5.585-3.08,14.198-0.321,21.414-0.877c8.716-0.672,8.256,5.754,6.849,10.079
		c-2.78,8.541,8.689,22.518-7.092,25.238c-8.098,1.395-21.972,7.859-24.838-9.409
		C651.659,1207.288,625.911,1213.242,618.472,1207.214z M686.763,1311.062c-33.481,5.666-26.157-7.813-26.172-15.68
		c-0.011-5.835,6.127-4.668,20.495-4.668c-22.427-5.441-21.803-5.441-21.805-29.911c-0.001-12.159,8.346-7.857,17.564-9.861
		c-9.137-2.366-19.175,0.844-18.602-10.64c1.523-30.526-2.497-26.924,11.298-27.012c24.726-0.158,18.758-7.328,21.898,87.089
		C691.585,1304.75,692.108,1310.157,686.763,1311.062z M297.964,1297.003c9.271,23.696,12.601,48.317,7.415,73.792
		C292.887,1347.431,294.567,1322.478,297.964,1297.003z M293.086,1372.83c4.694,5.627,6.38,15.192,17.255,10.497
		C309.633,1396.629,296.872,1396.082,293.086,1372.83z M311.417,1282.248c-0.315-1.459,0.65-3.33,2.804-3.735
		C322.733,1281.401,315.271,1300.074,311.417,1282.248z M317.446,1083.885c0.981,0.64,1.962,1.28,2.693,1.758
		C320.586,1091.224,315.007,1087.625,317.446,1083.885z M318.573,1069.701c-3.791-3.895-3.572-7.328-0.936-10.883
		C318.969,1062.173,322.78,1065.402,318.573,1069.701z M326.935,1086.276c2.596,3.495,2.462,7.054,1.334,11.413
		C323.638,1093.643,328.162,1089.733,326.935,1086.276z M326.968,1275.382c2.519,0.189,2.332,1.947,2.248,3.71
		c-0.053,1.112,1.105,2.815-0.99,2.937C325.558,1282.184,324.221,1276.153,326.968,1275.382z M324.474,1002.82
		c1.9,5.917,1.973,9.437,0.184,13.704C321.363,1012.346,323.117,1008.676,324.474,1002.82z M324.634,1177.086
		c-5.302-2.991-3.54-6.353-3.871-10.015C325.088,1169.363,325.25,1172.338,324.634,1177.086z M1212.816,704.99
		c-8.105,12.516-121.872,162.513-129.773,159.299C1217.539,693.385,1207.86,704.218,1212.816,704.99z M1333.781,634.204
		c5.253-1.19,11.349-4.394,11.827,4.152c0.688,12.305-31.812,24.248-33.952,10.96c-0.874-5.426,6.405-8.604,9.148-13.364
		C1324.675,629.236,1329.61,633.353,1333.781,634.204z M1332.681,622.578c0.171-5.552,5.379-12.598,12.885-10.418
		c5.17,1.502,15.314-1.441,14.518,8.07C1358.839,635.102,1332.448,630.149,1332.681,622.578z M1207.418,791.021
		c2.73,4.46,4.644,0.178,7.086-0.268c11.638-2.129-1.035,24.362-22.448,20.506c-12.132-2.185-10.459-4.673,21.742-42.362
		c22.079-25.843,31.81,23.596,1.685,18.592c-2.668-0.443-4.928-4.03-8.062-0.923C1205.834,788.14,1206.439,789.423,1207.418,791.021
		z M1106.585,873.265c0.074-8.67,11.244-13.169,9.926-7.695c-0.996,4.133,6.015,9.811-2.311,12.481
		c-1.915,8.303-8.842,7.426-12.455,4.038C1097.593,878.195,1103.075,875.328,1106.585,873.265z M1094.686,876.013
		c-13.619-1.424,12.946-23.92,9.457-12.166C1102.552,869.204,1099.328,873.45,1094.686,876.013z M1106.614,856.117
		c-3.371-2.489-0.411-4.875,1.193-6.073c6.009-4.487,6.25-18.039,19.624-13.127C1114.048,853.761,1111.023,859.372,1106.614,856.117
		z M1307.655,632.833c-0.376-2.017-2.432-3.948,0.815-4.842c17.11-4.709,4.619,27.08-18.832,17.852
		c2.938-4.217,2.918-10.923,11.756-4.956C1306.726,644.488,1308.56,637.688,1307.655,632.833z M1290.185,664.86
		c-0.229,2.885-2.719,2.455-4.743-0.325c-2.751-2.47-4.581-0.757-3.742,2.516c3.386,13.214-5.163,8.086-10.837,7.284
		c-1.638-0.232-3.707-1.127-2.264-3.231c4.962-7.237,8.63-15.99,18.244-18.391C1298.743,649.741,1290.572,659.991,1290.185,664.86z
		 M1270.863,681.074c9.081,6.129-8.062,13.569-6.005,20.844c-1.396,0.538-13.451,6.415-18.393,0.18
		c-3.73-4.706,9.52-16.624,13.296-21.038C1263.529,676.655,1267.168,678.58,1270.863,681.074z M1248.757,707.304
		c2.042,0.576,5.226,1.172,4.71,5.382c-6.101,4.986-8.331,14.551-17.976,16.358c-9.593,1.797-12.337-7.744-4.922-10.404
		C1239.962,715.271,1231.317,702.384,1248.757,707.304z M1233.769,735.683c0,7.035-24.812,27.044-22.568,12.636
		C1214.647,726.19,1231.787,729.576,1233.769,735.683z M1212.096,733.269c-4.252,5.449-7.706,12.595-15.375,15.509
		c-1.13,0.43-4.228-0.901-4.28-1.58c-0.519-6.831,6.602-9.193,8.99-14.557C1204.492,725.765,1213.173,727.204,1212.096,733.269z
		 M1197.225,760.059c3.558-5,8.435-2.879,12.957-1.673c1.755,0.468,3.099,1.57,1.987,6.108
		c-17.628,20.701-17.276,22.829-22.212,10.279C1187.362,768.179,1193.986,764.611,1197.225,760.059z M1141.27,833.341
		c7.145-19.724,21.278-27.364,32.71-17.789C1162.308,816.852,1161.126,842.348,1141.27,833.341z M1144.348,846.635
		c-5.786,1.945-6.408-4.438-12.427-6.727C1154.441,837.026,1145.591,846.217,1144.348,846.635z M1176.905,785.693
		c4.991-4.764,13.006,0.14,14.719,3.8C1192.003,801.593,1140.592,820.352,1176.905,785.693z M1173.253,777.889
		c-5.038-0.462-5.773-2.566-3.81-5.297c13.253-18.439,15.631-22.045,21.071-18.488
		C1195.874,757.608,1179.19,775.159,1173.253,777.889z M1169.925,783.571c0.422,4.14-14.959,26.073-20.127,17.625
		c-2.765-4.52,1.6-6.868,3.796-9.502C1155.788,789.063,1164.164,775.572,1169.925,783.571z M1147.889,813.927
		c-7.035,5.589-9.087,17.918-24.703,16.229c19.553-22.859,21.105-26.654,25.722-22.67
		C1151.987,810.142,1149.469,812.672,1147.889,813.927z M1119.558,855.814c0.794-4.876,4.58-9.715,9.626-10.605
		c4.651-0.821,6.06,4.948,9.315,7.1C1132.721,865.8,1118.592,861.75,1119.558,855.814z M1124.517,876.417
		c8.579-12.415,17.889-8.548,27.655-1.983c-5.65,12.666-16.93,8.796-26.555,8.484
		C1121.956,882.799,1122.198,879.773,1124.517,876.417z M1140.364,861.121c-0.967-3.804,13.871-19.48,18.366-19.634
		C1201.946,840.009,1145.068,879.631,1140.364,861.121z M1168.051,839.728c-10.759-2.834-7.877-2.085,6.472-23.924
		c1-0.221,19.354-5.61,23.37,2.742c2.12,4.41-3.876,6.399-6.098,9.613C1185.995,836.553,1180.002,842.875,1168.051,839.728z
		 M1229.051,752.904c1.048-5.006,2.694-16.161,14.043-13.301c5.422,1.367,13.827-7.207,18.515,2.176
		c2.619,5.242-12.553,17.431-21.338,17.163C1236.95,756.839,1227.447,760.568,1229.051,752.904z M1253.411,733.548
		c-6.828-2.577-7.585-4.812-3.476-9.457c4.14-4.68,6.689-10.994,12.801-13.762c4.654,2.044-0.637,7.996,4.464,9.669
		c4.505-0.118,0.528-9.245,7.573-7.317c1.002,0.274,11.475,0.647,5.146,8.23C1269.19,733.765,1268.229,739.14,1253.411,733.548z
		 M1265.484,701.956c11.929-3.294,9.938-22.7,29.667-17.111C1315.029,690.477,1278.364,728.541,1265.484,701.956z M1288.701,676.675
		c3.499-7.572,10.019-12.722,15.518-18.441c6.281-6.533,13.534,0.957,20.479,0.82c6.545-0.129-8.732,18.318-9.749,19.321
		c-3.566,3.518-8.256,8.55-13.862,1.704C1297.822,676.093,1292.537,682.148,1288.701,676.675z M1318.224,623.865
		c-3.262-0.387-9.464-0.332-8.107-5.141c4.737-16.797,22.182-13.473,22.194-4.663
		C1328.433,617.779,1326.081,624.798,1318.224,623.865z M1311.251,606.562c-2,5.708-5.043,10.757-10.965,12.6
		C1285.589,617.82,1315.244,595.172,1311.251,606.562z M1296.835,624.103c-17.154,33.337-26.299,17.999-20.801,12.453
		C1281.531,631.012,1284.943,621.893,1296.835,624.103z M1269.822,660.621c-4.669,5.132-7.626,14.423-19.166,9.512
		c14.218-19.892,17.109-25.981,22.663-21.12C1278.342,653.409,1272.536,657.637,1269.822,660.621z M1254.079,680.342
		c-8.858,11.998-14.216,22.087-22.754,17.751c-3.142-1.596,7.862-14.369,14.706-22.715
		C1248.04,672.928,1255.523,674.842,1254.079,680.342z M1232.665,707.75c0.225,2.904-20.792,25.708-21.822,13.636
		c-0.315-3.696,12.827-17.972,16.239-17.822C1229.402,704.357,1232.402,704.361,1232.665,707.75z M1001.008,841.221
		c-1.773,5.613-2.92,10.478-10.293,11.028c-7.369,0.549-10.069-3.048-10.296-10.998c-4.457,4.788-1.555,12.295-10.105,11.122
		c-15.113-2.071-8.293-25.084-3.776-39.776c1.338-4.353,5.01-3.974,8.442-4.272C1009.554,805.32,1011.527,807.91,1001.008,841.221z
		 M993.769,868.723c-4.895,14.25-6.212,29.706-15.445,46.17c-13.858-71.434-14.442-54.659,5.523-58.34
		C994.865,854.522,996.878,859.674,993.769,868.723z M902.264,747.034c-1.3-0.809-2.517-1.942-3.57-3.329
		c-0.163-0.215-0.295-0.432-0.404-0.65c-12.582-2.551-36.364-26.332-10.934-30.918c1.873-0.338,34.052-4.68,34.899-0.475
		c1.721,8.545-0.31,15.4-3.881,20.517c-0.885,3.368-1.511,6.656-2.642,9.744c1.853,2.537-1.172,13.481-6.923,14.83
		c-1.43-1.785-7.023-4.339-5.27-8.136C903.114,748.093,902.7,747.549,902.264,747.034z M921.784,740.573
		c0.247-5.812,2.775-11.534,5.581-16.616c0.801-16.114,7.403-18.767,33.915-15.97c2.918-0.495,5.842-0.821,8.727-0.97
		c0.469-0.024,0.882,0.036,1.27,0.131c0.392-0.264,0.782-0.53,1.168-0.796c4.001-2.76,8.48-1.119,12.214,0.966
		c4.596,2.567,2.303,6.924,1.406,10.417c-2.762,10.742-3.473,23.108-9.515,31.626c-8.822,12.435-29.951-1.926-39.246,8.636
		c-6.121-0.268-14.433,2.173-16.978-4.802c-1.512-4.144-0.767-8.019,1.547-11.728C921.805,741.171,921.771,740.872,921.784,740.573z
		 M916.066,763.223c3.891-6.221,9.8,3.834,21.291-5.12c9.262,0.391,18.172,4.602,27.91,0.948c4.99-1.872,11.155-1.037,7.45,7.645
		c-4.029,9.443-2.545,20.357-8.237,29.475c-14.917,23.893-29.498-2.496-44.34-24.751
		C918.451,768.888,913.405,767.476,916.066,763.223z M949.691,810.92c1.526-2.478,8.568-2.582,10.268,0.01
		c3.717,5.667-1.204,10.556-4.035,17.63C952.206,821.676,945.503,817.721,949.691,810.92z M1016.882,776.509
		c-7.273,25.883-7.553,26.108-34.299,27.26c-8.362,0.36-15.983,1.991-12.474-10.242c9.023-31.453,6.72-35.514,21.897-37.033
		c4.1-0.411,7.464,2.009,11.089,2.053C1021.911,758.779,1021.913,758.602,1016.882,776.509z M1010.151,658.271
		c23.731-3.624,27.618-3.305,29.113,3.216c-0.018,0.019-0.034,0.036-0.051,0.054c2.016,0.824,3.04,2.381,2.937,4.43
		c0.178-0.101,0.35-0.198,0.529-0.3c0.686,12.65-1.118,13.564-16.435,76.455c-3.117,12.797-11.921,9.446-23.018,9.721
		c-21.944,0.544-20.444,0.807-16.912-21.084c5.428-33.646,23.445-26.785,39.096-29.457c-7.459-8.334-23.559,4.103-27.124-5.835
		c-0.924-2.576,0.219-3.842,1.864-4.764c0.113-3.011,0.511-6.222,1.628-9.082C999.25,676.798,1005.027,659.054,1010.151,658.271z
		 M953.434,655.042c5.879,0.717,1.932,4.401-2.381,1.816C951.952,656.173,952.85,655.488,953.434,655.042z M950.743,663.479
		c11.241-0.096,22.035-4.324,35.368-2.539c2.839,1.657,10.859-6.03,13.055,3.034c2.431,10.031-8.627,28.581-16.571,31.779
		c-12.091,4.867-24.654,6.608-37.454,8.051c-21.325,2.405-8.752-10.389-6.915-28.46C939.036,667.38,943.55,663.541,950.743,663.479z
		 M908.767,668.025c8.667,0.297,19.859-7.204,25.238-0.09c4.014,5.308-4.901,15.747-5.48,23.6
		c-1.574,21.373-18.126,11.289-26.179,15.051c-24.471,1.628-23.206,1.441-18.436-20.662
		C887.302,670.202,895.508,667.57,908.767,668.025z M828.489,681.482c-1.67-5.042,3.398-6.418,8.299-6.808
		c50.987-4.058,49.723-14.293,38.416,28.984c-2.046,7.829-11.372,3.55-15.278,8.519c-8.862-2.97-17.919-5.442-26.492-9.062
		C822.674,698.572,830.869,688.67,828.489,681.482z M860.222,712.576c8.211-0.288,9.794-0.302,10.175,2.791
		C870.909,719.508,866.074,721.986,860.222,712.576z M885.845,743.579c1.669,1.47,4.725,3.466,3.19,6.393
		c-1.817,3.465-5.278,1.084-8.026,1.417c-0.058,1.494-0.556,2.771-1.365,3.899c0.072,0.198,0.137,0.402,0.216,0.594
		c0.166,0.178,0.323,0.362,0.461,0.56c1.065,1.536,2.175,3.017,3.34,4.479c0.108,0.136,0.184,0.274,0.276,0.411
		c7.774,1.901,12.92,15.312,26.029,28.759c-2.026-13.911-15.149-22.261-19.53-36.509c14.552,2.261,70.749,74.097,77.367,153.33
		c0.882,10.563-5.458,10.301-11.896,10.092c-293.128-9.509-196.956,65.546-291.961-103.158c-2.381-4.227-6.257-8.301-5.19-14.829
		c9.507,4.298,10.836,16.78,20.967,19.537c6.686-6.164-31.9-63.106-45.656-85.416c-1.883-3.054-4.545-6.009-8.15-5.339
		c-4.322,0.804,1.302,5.664-2.426,7.686c-36.322-34.372,2.544-24.82,112.355-25.733C814.318,709.1,831.726,695.898,885.845,743.579z
		 M688.675,676.58c-0.532-0.009-1.065-0.017-1.597-0.026V640.55c0.532,0.004,1.065,0.009,1.597,0.013V676.58z M689.465,605.067
		v-66.483c0.644-0.003,1.288-0.006,1.932-0.009v66.49C690.753,605.066,690.109,605.066,689.465,605.067z M820.987,544.571
		c2.781,7.005,4.134,13.833-0.724,21.55C816.789,558.121,816.823,551.271,820.987,544.571z M814.054,435.753
		c3.023,2.852,2.602,5.006,1.459,7.58C812.14,440.871,814.092,438.679,814.054,435.753z M813.59,454.897
		c3.557,4.423,2.365,7.863,1.479,12.979C811.565,463.163,813.54,459.691,813.59,454.897z M808.189,421.169
		c0,52.756,1.028,51.984-2.991,52.246C793.737,474.165,803.209,427.583,808.189,421.169z M700.605,558.256
		c4.562-155.185-2.111-154.568,11.84-153.887c72.824,3.552,59.62-4.934,56.646,72.993c-0.078,2.05,0.13,4.683-1.363,5.858
		c-0.084,1.452-0.331,2.89-0.461,4.339c-0.086,0.951-0.447,2.784,0.243,3.43c1.02,0.956,1.227,2.093,0.936,3.106
		c2.387,12.335-3.201,47.734-1.176,78.714c6.1-3.883,4.003-1.26,5.081-77.646c0.028-2.01-0.534-4.617,0.192-6.444
		c-0.109-2.697,0.188-5.383,0.692-8.049c-2.146-1.617-0.532-5.368,0.27-12.045c4.97-25.708-4.027-57.527,5.614-57.166
		c4.744,0.177,4.194,4.789,3.612,6.73c-4.415,14.727,1.243,44.94-1.483,57.599c0.009,0.326-0.012,0.664-0.107,1.027
		c-0.848,3.252-1.745,6.675-1.835,10.082c3.455,1.36,0.908,5.917,0.787,8.181c-1.152,21.546,0.844,43.218-2.664,64.685
		c-0.641,3.926-1.361,8.326,1.11,12.553c4.914-4.101,3.702-9.634,3.774-14.504c0,0,5.315-134.131,5.315-134.132
		c0.167-3.403-1.985-8.621,4.087-9.171c11.444-1.036,3.512,5.599,3.512,132.503c5.897-0.923,0.333-3.007,3.58-50.873
		c0.406-5.988-3.461-16.94,5.988-16.606c9.736,0.344-6.024,154.632-0.443,206.902c4.618-69.708,3.38-139.618,9.24-209.261
		c3.738,6.257-4.686,211.766-1.395,215.556c2.103,2.423,8.766,2.034,5.567,7.417c-2.13,3.583-7.187,1.347-10.874,1.454
		c-30.655,0.898-31.226,0.783-28.655-29.656c1.999-23.672-0.095-47.504,3.456-71.078c0.217-1.437-0.884-3.072-3.737-4.807
		c-12.371,126.411,23.885,104.642-77.144,107.53c-6.329,0.181-6.82-3.196-6.584-8.016c1.061-21.652-0.18-43.059,4.194-64.986
		C703.069,607.267,699.894,582.423,700.605,558.256z M589.58,479.493c-0.539-43.628-8.05-58.13,17.804-63.364
		c121.081-24.51,89.527-22.663,86.423,111.478c-0.038,1.651-0.751,3.375-3.635,3.756V410.838
		c-6.433,14.649-14.275,26.48-14.463,42.595c-1.878,161.204-6.169,232.073-3.712,238.503c5.631,0.69,4.292-8.841,8.811-5.59
		c3.667,2.637,6.609,8.102,7.188,12.653c1.023,8.045-65.937,5.34-75.6,5.192c-22.186-0.339,1.866-65.145-10.463-226.086v212.942
		c-16.55-17.863-10.239-2.179-11.798-163.897c-0.031-3.21,6.582-13.485-6.137-10.072C579.263,482.76,589.83,499.63,589.58,479.493z
		 M218.968,661.29c-7.848-10.046-9.155-13.426,142.565-24.406c205.263-14.855,184.158-32.074,210.396,16.031
		c0.546,1,121.073,221.383,139.774,262.633c6.824,15.05,11.947,7.463-203.117,15.497c-0.001,0-131.62,3.9-131.621,3.9
		c-8.764-0.638-5.977-8.042-0.65-9.121c11.059-2.24,121.209-3.53,219.467-8.993c76.804-4.27,101.751,0.524,93.002-13.605
		c-12.811-20.692-18.867-45.149-35.515-63.659c0.017,0.003,0.031,0.008,0.047,0.011c-10.715-29.736-22.319-42.835-101.833-198.901
		c-9.808-19.251-13.071-8.544-109.669-0.721c-1.011,0.082-213.649,19.348-215.536,20.692
		C223.644,662.524,221.811,664.929,218.968,661.29z M304.484,914.386c-0.78-7.215-14.162-0.124-12.09-10.686
		c1.972-10.057-13.769,3.442-12.058-8.382c0.625-4.316,5.479-2.281,8.719-2.025c2.026,0.16,31.091-1.626,30.406,11.382
		C319.134,910.894,309.852,911.39,304.484,914.386z M304.54,929.274c-11.563,2.942-9.701-3.054-8.7-3.729
		C299.717,922.929,302.178,925.094,304.54,929.274z M306.004,829.641c7.845,12.179-2.646,7.979-4.568,7.979
		c-14.397-0.001-17.858-13.882-26.109-23.045c19.467,0,13.988-0.156,19.575,0.889C291.56,825.735,302.745,824.582,306.004,829.641z
		 M323.342,898.01c1.281-3.427,4.318-3.184,8.641-2.854C327.422,905.226,322.825,899.396,323.342,898.01z M331.221,915.176
		c-1.46,3.672-9.992,3.026-9.848-2.613C321.512,907.066,329.655,908.39,331.221,915.176z M324.902,890.89
		c-14.97-0.247-22.854-11.6-32.515-21.69c25.622-8.077,43.038,16.044,41.576,19.707C332.221,893.275,327.864,890.939,324.902,890.89
		z M197.091,806.475c-0.006-0.036-0.013-0.077-0.02-0.114c7.283,2.5,11.188,18.205,23.014,5.259
		c1.68-1.839,11.875,3.516,11.116,10.742c-1.983,18.882,10.681-0.114,11.917,9.757c0.863,6.883-27.491,11.197-49.954-16.471
		C187.945,809.221,199.825,811.201,197.091,806.475z M273.637,860.795c-20.531,2.191-37.765-1.692-51.355-19.661
		C243.618,836.491,260.953,839.755,273.637,860.795z M300.887,887.162c-26.674,4.898-37.299,0.65-50.536-20.47
		C272.539,861.719,289.525,867.605,300.887,887.162z M309.461,845.172c6.648-4.718,12.562,9.535,13.611,17.408
		C316.899,861.699,302.458,850.141,309.461,845.172z M283.419,835.542c-2.474,3.266-8.112-0.227-12.036,6.479
		c19.535-5.438,28.095,7.072,39.054,20.593c-14.233-1.257-29.925,2.741-35.772-9.99c-7.604-16.555-27.013-17.031-34.962-31.292
		c-1.538-2.761-6.694-3.968-4.734-8.001C236.418,810.35,267.836,805.73,283.419,835.542z M245.173,806.93
		c-19.675,8.193-25.189-10.205-32.96-8.993c1.028-6.08-10.439-8.245-5.547-14.754c5.761-7.665,13.379-0.693,20.164-0.842
		c18.348-0.402,10.447,13.797,19.687,15.282c3.082,0.495,6.591,1.476,6.701,4.89C253.38,807.471,247.334,806.03,245.173,806.93z
		 M205.71,795.176c1.431,2.333,3.322,3.467,5.95,3.292c0.119,11.447-7.395,9.379-14.592,7.872
		c-2.922-16.113-3.51,10.796-22.412-8.677c-5.31-5.471-10.462-11.096-16.373-17.389C176.549,778.664,194.243,776.478,205.71,795.176
		z M196.038,825.264c1.501,2.381,6.139,3.275,4.78,6.768c-1.39,3.574-23.232,6.722-39.094-9.116
		c-3.584-3.579-7.524-6.801-12.841-11.564C168.669,806.74,184.933,807.647,196.038,825.264z M229.007,858.418
		c-1.528,1.601-25.576,7.476-43.854-17.992C218.249,832.225,230.654,856.691,229.007,858.418z M218.986,863.349
		c10.034-3.25,35.116,9.029,36.414,18.788c1.115,8.377-6.511,3.618-8.844,4.795c-14.926,1.443-21.195-9.517-29.427-17.114
		C214.189,867.105,215.077,864.616,218.986,863.349z M289.359,913.309c-21.806,7.628-32.361-7.88-46.165-20.444
		C265.651,886.376,277.04,899.817,289.359,913.309z M349.667,932.203c-15.728,5.292-31.894,1.664-40.656-10.358
		C323.881,924.008,338.871,917.155,349.667,932.203z M347.452,917.679c-2.534-6.98-13.776-3.814-15.47-11.724
		c-0.95-4.436,5.507-7.348,8.913-7.49c8.405-0.348,7.82,8.465,10.796,13.503C353.132,914.404,351.951,917.047,347.452,917.679z
		 M322.493,828.125c-2.715-4.534-1.981-7.07,3.967-7.258c37.285-1.177,44.763-6.812,50.961,11.006
		c1.255,3.606,4.437,6.78,4.878,10.379c0.724,5.911,8.981,10.594,7.188,16.462c2.27,2.352,2.544,5.01,1.463,7.203
		c3.803,0.245,5.204,4.094,4.295,5.094c-3.669,4.034-8.231,1.525-14.759,1.977c0.242-0.173,0.47-0.351,0.7-0.529
		c-2.875,0.263-5.072-0.205-6.881-0.986C343.677,885.822,344.264,864.476,322.493,828.125z M477.271,676.237
		c9.041-1.785,8.799,6.082,10.06,10.196c1.817,5.932-1.362,4.68-28.146,4.68l-0.013,0.304c-76.221,4.68-53.808,10.934-76.794-29.883
		c-6.363-11.299-2.002-12.614,73.922-17.004c12.805-0.74,22.315,14.305,16.935,26.233
		C470.464,676.907,470.597,677.555,477.271,676.237z M655.858,860.538c-4.928,4.426-15.364,2.846-23.418,3.62
		c-76.838,7.39-46.056-29.133-71.083-43.34c1.407-3.676,1.674-7.231,7.719-7.687c78.047-5.895,63.066-1.96,72.254,10.805
		c3.778,5.249,3.236,13.793,11.585,15.543C651.903,847.199,660.537,856.336,655.858,860.538z M597.572,880.477
		c-2.886-0.623-4.566-4.473-4.104-7.226c0.707-4.218,4.759-2.602,7.501-2.54c14.736,0.333,29.727-6.894,44.252,1.677
		c1,0.59,15.733-13.169,23.079,2.533c16.607,35.501,22.977,30.924-23.237,33.403c-0.003-0.042-0.005-0.085-0.007-0.127
		c-11.55,0.568-47.01,6.269-43.371-19.864C602.377,883.367,602.919,881.63,597.572,880.477z M572.053,851.865
		c5.685,1.713,7.976,6.956,7.475,11.748c-0.402,3.838,1.761,3.872-52.396,5.087c-5.091,0.114-11.073,1.346-14.896-2.305
		c-3.761-3.594-4.521-4.168-8.142,0.431c-11.642,14.791-18.982-9.317-37.489-42.974c-6.556-11.92,0.207-7.589,77.431-10.452
		c7.102-0.263,10.714,6.498,17.031,7.427c0.501,9.855,11.295,17.203,6.731,28.544C566.563,852.44,570.244,851.319,572.053,851.865z
		 M491.522,880.746c5.055,9.754,15.467,20.223,12.243,29.761c-2.798,8.276-17.2,3.63-26.395,4.576
		c-78.741,8.104-44.333-3.849-68.276-32.058c-8.724-10.279,29.775-5.05,68.414-9.168
		C484.006,873.165,488.863,875.617,491.522,880.746z M497.143,876.013c3.147-6.496,9.998-3.39,44.427-3.39
		c0-0.363-0.001-0.725-0.002-1.088c42.688,0,46.117-4.225,58.004,27.956c5.936,16.069-8.941,9.319-79.025,13.605
		c-6.723,0.411-8.684-4.756-11.125-9.148C504.295,894.72,493.411,883.716,497.143,876.013z M626.57,805.117
		c-8.598-0.384-18.321,5.536-25.72-3.237c-1.431-1.697-2.719-2.357-3.834-0.761c-9.735,13.926-24.051,4.711-36.023,7.188
		c-5.96,1.233-5.442-5.364-25.84-42.847c-6.024-11.07,1.84-8.843,28.011-8.843c5.98,2.731,16.486-5.09,24.419,3.422
		c0.341,0.365,1.662,0.414,2.025,0.074c15.222-14.254,16.6-3.442,38.145,38.056C629.164,800.886,630.865,805.309,626.57,805.117z
		 M595.328,751.33c-18.453,0.265-36.933,1.372-55.34,0.616c-19.191-0.788-37.169-46.955-40.279-57.407
		c84.974-4.101,66.669-15.495,100.245,49.385C602.274,748.407,601.002,751.249,595.328,751.33z M529.41,688.627
		c0.001,0.38,0.003,0.759,0.004,1.138c-5.173,0-10.646-1.106-15.465,0.2c-15.859,4.3-26.408-7.778-29.647-22.289
		c-1.816-8.123-12.337-15.757-7.971-22.601c4.149-6.502,16.072-1.798,24.311-4.828c4.61-1.696,10.236-0.551,15.395-0.847
		c24.207-1.39,22.877-17.111,50.652,43.691C569.843,689.997,561.33,688.627,529.41,688.627z M387.709,690.192
		c3.099,4.296,5.406,6.816-59.43,7.533c-13.61,0.151-40.45-37.141-22.697-38.956c65.831-6.733,65.925-7.639,68.087-3.187
		C378.96,666.479,387.054,676.304,387.709,690.192z M386.02,698.68c14.745-1.024,11.253,5.483,35.36,48.376
		c6.744,12.001,0.017,9.171-41.796,9.171c-27.2,9.807-41.728-4.822-51.776-32.231C317.321,695.386,313.72,703.703,386.02,698.68z
		 M404.492,705.964c-3.885-6.905-1.679-9.909,5.457-9.127c25.043,2.745,49.829-2.411,74.798-2.101
		c10.856,0.135,9.136,1.649,32.133,46.108c8.136,15.729,5.118,12.061-63.546,12.986c-3.335,0.045-6.743-0.056-9.634,2.051
		C425.851,757.528,426.582,745.228,404.492,705.964z M443.664,755.904c-0.077,0.057-0.158,0.097-0.235,0.157
		c10.386,7.758,28.271-6.542,36.579,12.178c2.601-12.064,10.465-9.564,17.207-11.046c21.265-4.673,32.446,4.162,41.04,23.478
		c12.983,29.183,14.197,29.693-17.209,28.729c-17.299-0.531-34.257,2.889-51.522,1.688c-16.57-1.153-12.13-9.426-30.739-39.07
		C433.748,763.993,434.777,759.057,443.664,755.904z M481.355,860.592c7.248,12.95,3.347,9.869-71.098,11.958
		c-9.216,0.259-11.649-7.463-11.371-10.219c-1.106-1.755-1.837-3.753-1.972-5.907c-0.39-0.767-1.788-4.086-2.106-5.4
		c-3.623-2.394-6.608-8.309-11.876-18.776c-8.567-17.024-12.148-12.216,64.804-16.424
		C460.121,815.147,457.817,818.532,481.355,860.592z M355.878,923.64c9.085,4.785-0.856,8.601-3.181,2.751
		C352.022,924.695,354.275,924.015,355.878,923.64z M358.288,893.342c-5.708-16.648,39.678-23.177,44.821-9.211
		c11.745,31.894,20.817,33.769-9.087,34.104C371.579,918.486,365.442,914.211,358.288,893.342z M234.951,671.672
		c-1.733-5.195,0.279-6.171,4.181-6.597c52.181-5.701,50.527-7.129,54.14,0.098c18.481,36.965,23.043,34.157-15.622,34.157
		c-0.001,0.225-0.001,0.45-0.002,0.675C253.551,700.005,244.558,700.464,234.951,671.672z M256.43,724.958
		c-3.289-1.575-3.059-0.342-1.84-4.419c0.861,0.8,1.722,1.601,2.521,2.343C256.843,723.698,256.636,724.328,256.43,724.958z
		 M261.848,705c42.46-1.739,48.7-7.229,54.95,6.096c26.181,55.821,35.686,47.084-26.444,47.084c0.008,1.74,0.015,3.48,0.022,5.221
		c50.88,0,50.997-4.129,56.844,7.723c6.009,12.18,10.283,25.35,21.221,35.139c-19.759-40.826-26.487-45.478-9.255-44.82
		c8.189,0.312,28.018-2.661,28.018-2.661c22.407,24.664,25.876-41.976,66.585,52.031c-16.947,1.88-86.147,7.051-99.539-2.801
		c-7.41,12.448-19.976,5.817-30.085,8.354c-6.389,1.604-9.842-0.823-12.532-5.686C250.941,700.96,250.554,705.463,261.848,705z
		 M289.343,807.228c-20.44,4.517-35.668-4.303-41.714-23.488C270.175,776.228,277.064,795.748,289.343,807.228z M261.109,776.617
		c-16.208,5.93-44.873-12.414-35.336-22.512C236.593,742.651,246.571,759.494,261.109,776.617z M233.188,746.13
		c-31.215,4.806-37.885-13.115-36.085-16.38C199.009,726.294,214.728,723.852,233.188,746.13z M205.016,720.473
		c-4.661,3.683-8.298,2.609-15.025,0H205.016z M148.134,725.711c24.616,0.626,48.582,12.001,36.862,16.125
		c-6.061,2.133-3.715,7.194,1.839,7.008c19.616-0.658,24.881,17.792,37.235,27c-7.504,0.662-14.989,3.948-20.202-4.688
		c-1.439-2.384-4.945-5.502-8.703,1.685c-3.722,7.119-8.477-5.234-14.364-3.666c0.354-9.06-24.487-17.895-7.377-21.922
		c-8.271-3.355-20.251,0.026-20.817-13.992c-0.08-1.983-2.874-0.988-4.501-0.882C142.561,732.743,143.518,725.594,148.134,725.711z
		 M147.152,741.598c-7.609,7.253-15.323-3.87-24.629,0.871c-8.256,4.206-14.652-7.188-20.921-15.922
		C130.669,723.768,134.032,724.925,147.152,741.598z M25.462,717.579c0.332-1.317,0.664-2.634,0.996-3.951
		c16.001,6.33,33.758-6.59,49.229,7.752c1.826,1.693,5.79,1.093,8.767,1.529c18.302,2.684-2.457,6.833,4.426,14.226
		c4.237,4.549,5.975-10.317,11.886-2.308c2.463,3.339,10.195,8.472-4.715,8.528c-15.029,0.058-30.501,1.152-41.275-12.688
		c-1.953-2.509-6.001-3.957-4.636-8.245c0.589-1.852,2.86-3.95-0.517-4.937c-1.001-0.292-18.19-1.755,15.794,28.368
		c10.993,9.744,22.346,19.045,30.081,32.195C72.151,757.892,48.807,737.735,25.462,717.579z M100.448,781.384
		c7.092,3.249,15.344,5.222,16.234,15.226C111.271,791.534,105.859,786.459,100.448,781.384z M113.883,777.463h22.451
		c-10.514-7.283-23.038-0.48-32.628-6.624c-9.587-6.142-17.784-14.453-28.192-23.151c13.171-3.575,24.496-1.073,35.416-0.268
		c11.814,0.871,15.902,14.62,25.957,19.318c3.646-5.64-13.842-10.732-6.367-16.836c17.739-14.486,44.989,16.288,49.813,19.514
		c0.223,12.53-10.49,1.933-38.166,6.186c3.257,7.665,11.684,7.384,15.783,12.902c4.002,5.386,9.783,9.451,15.089,14.381
		C150.864,810.689,132.144,802.805,113.883,777.463z M274.157,934.647c-1.002-0.543-121.306-104.29-124.596-110.679
		c-10.124-6.045-20.569-11.738-25.047-23.971c9.274,6.992,20.689,11.56,25.495,23.588c14.4,6.914,18.413,11.596,123.805,105.997
		C275.073,930.708,276.571,931.914,274.157,934.647z M276.405,920.11h16.591C284.46,930.294,284.154,930.31,276.405,920.11z
		 M278.551,935.779c157.565,14.291-20.8,3.708,608.093-8.452c32.547-0.629,81.963-7.809,82.219,1.289
		c0.176,6.254,13.233,6.108-165.125,12.513C355.336,957.233,298.151,974.339,278.551,935.779z M719.569,1587.349
		c0.237-1.347,0.474-2.693,0.711-4.04c30.239,0,30.404-0.957,30.957,3.618C751.936,1592.709,735.478,1602.247,719.569,1587.349z
		 M721.985,1576.79c9.762,0.781,18.698-4.473,28.477-2.586C741.363,1579.764,731.863,1580.147,721.985,1576.79z M755.742,1555.714
		c-1.362,2.698-3.896,3.473-6.882,3.635C747.981,1551.512,757.178,1552.87,755.742,1555.714z M861.395,1518.438
		c2.014-3.61,3.881-7.425,8.963-7.276C870.084,1516.749,865.092,1516.855,861.395,1518.438z M870.714,1510.926
		c1.529-3.615,4.628-5.342,10.943-7.367C878.058,1509.164,875.713,1511.882,870.714,1510.926z M864.559,1505.141
		c26.377-30.138,23.81-32.195,29.239-28.372c4.942,3.479,0.081,4.605-1.188,6.661
		C886.072,1494.024,876.294,1500.65,864.559,1505.141z M891.14,1495.469c0.723-3.719,1.761-6.401,5.248-7.573
		C897.308,1491.634,895.942,1494.121,891.14,1495.469z M896.565,1487.622c-0.055-3.189,1.747-4.388,4.763-4.079
		C902.977,1483.712,901.071,1488.796,896.565,1487.622z M934.38,1444.487c-1.09-4.07,0.606-2.6,1.784-1.663
		C935.555,1443.391,934.946,1443.959,934.38,1444.487z M949.098,1413.944c-7.811-5.122,9.003-12.999,9.543-25.198
		c-17.757,7.995-9.314,16.572-55.492,69.498c4.664-18.818,20.639-32.416,23.145-52.344c-22.89,44.094-49.488,85.391-86.102,119.589
		c5.042-2.066,10.084-4.131,15.126-6.197c0.48,1.124,0.961,2.247,1.441,3.371c-12.727,10.04-26.545,17.993-42.852,21.758
		c39.61-35.282,66.118-79.075,86.537-126.953c-17.31,31.005-35.767,61.268-59.134,88.419c0.947-12.171,8.3-21.581,12.519-32.978
		c-12.179,0.719-0.004,1.208-47.339,72.183c-2.897,4.344-6.404,8.246-13.376,3.752c3.469-6.27,7.01-12.669,10.551-19.068
		c-0.413-0.374-0.828-0.747-1.243-1.12c-4.774-1.024-3.859,7.309-9.002,5.678c-6.508,16.935-14.587,22.123-31.862,19.74
		c30.439-43.996,37.378-94.6,42.744-145.635c-6.787,39.394-14.089,78.667-31.201,115.456c0.188-23.171,7.48-45.543,6.435-68.969
		c-2.445,16.291-13.52,29.727-13.009,47.248c0.529,18.138-6.579,33.659-20.503,50.278c3.473-14.549,6.507-27.26,9.495-39.775
		c-5.379-3.005-4.136,3.707-7.36,3.449c-0.134-0.046-0.76-0.2-0.751-0.264c2.792-19.75,6.852-39.374,5.779-59.548
		c-6.071,12.866-1.443,28.083-9.857,43.798v-55.905c-0.901,23.07-6.61,45.831-4.906,69.077
		c-5.465-34.639-0.408-69.601-4.799-104.357c-5.071,46.172-4.083,92.597-3.305,140.248c-6.119-3.703-5.932-9.506-8.848-13.302
		c-3.707,21.536,9.234,9.952,17.35,19.161c1.616,1.834,5.75-1.455,5.788,3.379c-20.243,7.055-40.381,4.198-60.505-0.74l-6.479-4.373
		c-28.287-3.202-30.614-3.384-30.734-3.376c-27.76-14.484-60.036-18.434-85.301-39.336c-85.33-70.593-94.041-134.69-77.059-109.611
		c35.713,52.743,37.048,63.062,57.204,65.199c-41.257-37.646-52.347-77.83-51.397-79.786c4.594-9.459,0.366-8.102-6.61-6.358
		c-11.871,2.968-22.328-5.902-19.82-18.92c3.493-18.126-14.418-28.791,3.99-28.494c1.003,0.016,204.094,2.991,244.295,0.695
		c254.571-14.538,261.319-28.959,264.776-11.977c1.973,9.694,0.055,13.564-9.859,9.969c-10.537-3.821-22.382,5.041-11.338,16.619
		c5.023,5.266,9.967,35.026,10.048,36.472C965.882,1385.488,959.177,1420.553,949.098,1413.944z M734.657,1545.302
		c-1.445-9.581-2.661-16.467,1.295-23.236C738.048,1529.06,740.079,1536.127,734.657,1545.302z M973.882,1371.738
		c-5.29-10.058-5.912-22.19-14.102-31.045c-1.881-2.034,0.746-3.611,2.597-4.725c11.808-7.106,17.407,30.391,19.284,34.731
		C982.563,1373.575,976.085,1375.927,973.882,1371.738z M1119.174,1281.297c-193.647,42.442-132.917,19.91-387.638,43.514
		c-16.333,1.513-16.229,8.87-17.194-166.219c-0.393-71.463-6.854-81.469,4.022-81.781c8.604-0.247,7.032,7.14,6.953,12.431
		c-1.067,71.388,3.33,142.663,4.227,214.006c0.123,9.799,2.964,15.146,13.369,13.244c96.462-17.638,79.086,34.197,79.086-133.136
		c-2.105,0.002-4.211,0.004-6.317,0.006c0-66.731-0.006-133.462,0.003-200.193c0.004-31.925,2.855-20.143-77.331-19.052
		c-20.176,0.275-13.718,4.471-13.496,96.521c0.011,4.65,1.444,11.653-6.435,11.449c-7.826-0.203-5.888-6.773-6.017-11.759
		c-2.763-106.82-7.057-105.454,8.561-106.96c3.072-0.296,251.708-12.618,252.719-12.668c161.967-7.999,153.692-11.6,153.663,3.09
		c-0.251,123.236,1.798,191.684,0.077,253.359C1125.89,1252.179,1135.106,1277.805,1119.174,1281.297z M747.456,988.342
		c3.19,8.326,2.36,14.997-7.278,12.325c-11.043,2.08-10.563-2.32-8.023-8.268c1.844-4.318,10.066-8.942-0.708-12.905
		c-1.645-0.605-1.26-4.198,0.447-5.693c5.239-4.587,18.64-2.578,15.967,3.79C746.283,981.352,745.878,984.225,747.456,988.342z
		 M735.744,1007.243c8.993-1.557,14.385-0.752,13.554,10.872c-3.024,42.341,6.168,50.823-6.812,52.803
		c-4.419,0.674-9.174,2.233-10.857-3.068c-5.092-16.043,4.011-17.714,9.885-20.721c-17.045-5.525-9.676-17.651-10.667-26.682
		C730.393,1016.306,726.263,1008.884,735.744,1007.243z M771.971,986.817c0.212,3.278-0.648,4.452-4.387,5.868
		c-8.688,3.29,1.729,4.189,1.376,7.667c-12.678,3.2-17.496-1.534-16.629-14.057c1.166-16.836,0.798-16.861,17.43-14.928
		c1.284,4.57-3.283,2.505-4.633,4.017C754.681,987.086,771.278,976.102,771.971,986.817z M775.155,1152
		c-11.597,8.273,9.581,12.761,0.247,20.354c-4.263,3.468-9.926,1.321-14.982,1.526c-4.953,0.2-3.843-2.214-3.843-32.409l-1.175-0.01
		c0-27.779-2.838-32.169,8.035-32.903c8.852-0.598,12.645,2.45,11.639,11.617c-0.724,6.601,5.073,14.081-3.892,19.506
		C766.302,1142.636,780.53,1148.165,775.155,1152z M790.086,1043.645c-4.17,0.444-9.918,1.926-11.469-2.732
		c-6.26-18.804,8.657-11.87,5.312-20.251c-1.149-2.879-9.845-1.993-4.453-7.633c3.384-3.54,8.313-6.385,13.86-4.622
		c5.147,1.636,4.319,4.973,4.319,20.582C796.882,1033.262,801.811,1042.398,790.086,1043.645z M797.167,1100.868
		c-3.313,2.979-8.957,3.141-13.498,1.617c-5.981-2.008-3.074-8.155-4.433-11.258c-1.905-16.21,20.346-23.49,19.097-9.096
		C797.784,1088.465,802.941,1095.677,797.167,1100.868z M806.003,1068.327c-5.277-0.128-1.646-6.35-3.126-9.427
		c0.527-4.067-1.585-10.318,4.103-10.638c4.957-0.279,3.948,5.597,3.792,9.232C810.59,1061.719,813.223,1068.503,806.003,1068.327z
		 M816.12,1295.651c-0.055,2.878,0.552,7.337-3.377,6.68c-4.408-0.737-3.709-5.586-3.544-9.291c0.118-2.652-1.619-7.126,2.732-6.627
		C816.536,1286.943,816.092,1291.886,816.12,1295.651z M810.446,1279.996c-1.8-9.088-4.174-18.088,2.157-29.366
		C813.983,1262.551,817.439,1271.576,810.446,1279.996z M813.056,1245.888c-7.349-10.665-8.747-60.9-3.079-68.599
		C814.031,1199.934,814.104,1222.133,813.056,1245.888z M806.254,1168.846c1.995-5.932,6.736-6.805,6.525-0.606
		C812.849,1171.793,804.848,1173.025,806.254,1168.846z M808.659,1157.717c-8.262-11.486-0.516-18.125,2.204-13.589
		C813.78,1148.995,812.098,1153.474,808.659,1157.717z M804.087,1132.652c1.122-20.194,7.021-21.797-2.006-36.782
		c8.717,1.511,8.351-5.538,10.225,38.183C812.504,1138.655,803.768,1138.396,804.087,1132.652z M785.021,1294.221
		c-0.617-6.332,2.366-7.567,6.535-6.281c7.393,0.003,12.091,1.864,12.119,9.229c0.034,8.836-7.753,7.144-12.204,7.709
		C783.527,1305.886,785.492,1299.052,785.021,1294.221z M797.299,1253.4c11.798,2.056,2.06,11.177,4.694,19.962
		c2.766,9.226-3.081,8.685-8.687,9.54c-6.963,1.062-9.317-2.425-9.337-8.641c-0.008-2.568-0.001-5.135-0.001-5.132
		C782.118,1255.899,786.121,1251.452,797.299,1253.4z M787.875,1238.654c-4.944-5.001-6.447-11.562-4.446-18.313
		c1.852-6.246,7.774-3.795,12.027-4.432c4.58-0.686,7.404,1.597,7.525,6.499c0.651,26.294,0.477,27.453-19.799,23.198
		c4.697-1.405,8.255-1.477,8.844-2.836C793.662,1238.997,789.23,1240.025,787.875,1238.654z M800.874,1194.595
		c1.756,1.055-3.75,3.509-7.401,2.66c4.17,3.636,9.431,6.111,6.893,11.522c-1.888,4.024-7.333,3.71-11.581,3.683
		c-6.938-0.043-7.004-4.548-6.396-24.324c0.484-15.757,21.406-10.328,17.606-5.389
		C796.666,1187.07,793.62,1190.236,800.874,1194.595z M803.153,1083.396c0.458-2.978-1.632-7.61,3.28-8.184
		c5.113-0.598,4.322,4.152,4.546,7.26c0.281,3.884,0.077,8.529-5.21,8.189C801.603,1090.392,803.784,1086.04,803.153,1083.396z
		 M805.106,1041.839c-1.395-0.547-3.4-3.187-3.361-3.228c8.287-8.841-3.253-17.296-0.455-25.93c0.844-2.605-0.707-6.986,3.38-7.235
		c5.476-0.334,4.552,3.437,6.287,25.39C810.418,1036.261,810.852,1044.09,805.106,1041.839z M808.429,991.962
		c-0.603,3.303,1.253,8.045-2.782,7.625c-6.099-0.635-0.988-6.92-3.516-10.294c-1.793-2.393,1.871-5.239,3.841-4.877
		C811.296,985.394,806.458,990.153,808.429,991.962z M800.529,973.642c0.137-2.462,1.693-3.75,3.952-4.345
		C815.171,975.483,800.046,982.322,800.529,973.642z M784.555,1173.133c-6.686-3.088-0.639-11.798-3.077-14.458
		c-2.953-14.11,3.646-16.214,12.69-15.742C800.748,1143.276,809.582,1184.693,784.555,1173.133z M793.741,1129.229
		c1.456,2.466,8.344,3.173,4.22,7.047c-3.642,3.422-10.162,2.384-14.888,0.691c-4.809-1.723-2.769-6.252-1.565-9.861
		c2.294-3.606-7.878-13.393,9.649-20.068c9.937-3.784,11.443,10.874,6.066,16.982
		C795.788,1125.651,791.559,1125.535,793.741,1129.229z M777.537,1308.497c-7.541-4.858-17.957,4.814-17.696-9.711
		c0.366-20.333,28.836-8.607,15.927-2.998C768.321,1299.023,774.44,1302.098,777.537,1308.497z M777.956,1274.463
		c-2.524,1.488-19.169,26.282-19.169-6.112c0.097,0.001,0.194,0.002,0.29,0.003c0-3.396-0.227-6.812,0.064-10.183
		c0.292-3.397,5.266-3.409,5.246-3.271c-1.555,10.963,9.032,6.755,12.87,10.602C779.661,1267.912,781.507,1272.369,777.956,1274.463
		z M756.782,1184.021c2.358-6.122,6.615,0.792,9.37-1.059c3.591,1.396,9.797-5.624,9.668,3.294
		c-0.124,8.606,7.125,18.896-4.246,25.351c-12.2,6.927-19.27-6.673-11.103-12.16
		C769.448,1193.415,753.224,1193.258,756.782,1184.021z M759.999,1238.291c4.658-6.77-8.731-26.602,14.363-20.051
		c1.842,0.523,3.55,2.5,2.517,3.598c-10.729,11.394,13.938,25.642-10.54,27.555C756.933,1248.877,755.892,1244.259,759.999,1238.291
		z M778.045,1057.98c0.181-4.462,0.399-10.323,7.367-9.705c7.509,0.665,12.993,3.945,12.555,13.832
		C800.477,1075.363,777.523,1070.874,778.045,1057.98z M790.87,1000.48c-4.39-0.474-10.296,2.921-12.819-2.488
		c-3.198-6.854,7.197-4.615,7.714-10.484c-5.115-2.102-10.307-4.628-8.86-12.403c1.196-6.426,5.705-5.132,9.791-5.624
		c5.566-0.669,4.981,1.517,5.342,6.435C792.277,979.176,801.937,1001.675,790.87,1000.48z M760.072,1103.042
		c-9.046,0.409-4.198-9.809-5.212-12.913c-1.459-9.879-1.463-14.964,9.232-15.258c10.921-0.301,9.351,5.616,10.782,12.49
		C777.623,1100.562,765.857,1102.78,760.072,1103.042z M747.724,1291.229c3.512-0.748,7.652-1.12,4.829,4.975
		c-1.93,4.167,4.897,12.505-6.141,12.382c-12.748-0.142-10.662,0.472-10.662-30.527c0.082-0.006,0.163-0.012,0.245-0.018
		c-2.516-51.345-6.494-58.558,9.435-58.853c9.754-0.18,8.046,6.409,7.82,12.398c-0.297,7.865,2.266,16.775-8.47,20.445
		c-0.941,0.322-1.093,2.955-1.612,4.515c11.497,2.702,2.25,14.402,8.78,20.045c4.124,3.564,2.463,7.929-4.309,6.494
		C738.441,1281.137,738.353,1293.225,747.724,1291.229z M761.212,1048.692c6.681,0.779,13.849-0.138,11.801,5.541
		c-2.053,5.693,0.22,15.843-10.096,16.394c-3.866,0.206-10.873-0.953-7.155-6.646
		C758.947,1059.103,747.164,1045.717,761.212,1048.692z M768.248,1043.34c-4.411,0.492-10.423,3.526-13.165-0.898
		c-7.945-12.818,8.42-19.408,1.674-24.192c-3.966-2.812-4.104-7.174-2.146-10.088c3.03-4.513,8.632-2.603,13.199-2.47
		c5.283,0.154,3.943,3.675,5.709,12.843C771.047,1042.334,774.755,1042.615,768.248,1043.34z M748.21,1211.729
		c-8.961,0.852-16.563,1.193-15.28-12.536c4.728-50.62-9.314-52.674,11.608-53.717c12.222-0.609,3.982,12.875,4.584,14.134
		c5.562,11.636,1.203,17.484-11.613,18.099c3.621,6.478,9.874,1.558,13.914,6.332c-8.069,2.641-7.315,9.189-7.569,15.603
		c6.235,0.391,4.304-4.495,5.993-8.931C751.22,1197.831,755.486,1211.038,748.21,1211.729z M749.604,1137.593
		c-1.521,4.716-7.403,3.222-11.533,3.229c-3.936,0.007-6.34-1.983-6.383-6.397c-0.041-4.155-1.956-8.614,3.929-10.804
		c3.049-1.134,7.408-2.224,7.165-6.361c-0.314-5.351-7.178-0.631-10.99-8.568c7.551,4.045,14.994-3.646,17.892,3.63
		C752.755,1120.033,752.239,1129.423,749.604,1137.593z M741.137,1104.781c-9.911,0.396-10.877-4.62-9.842-11.686
		c0.973-6.648-4.591-17.021,8.564-17.642c13.171-0.622,9.985,9.736,11.004,17.084
		C752.054,1100.179,750.579,1104.403,741.137,1104.781z M999.225,933.912l-0.115-0.959c-17.568,0-19.499,1.015-19.462-3.79
		c0.078-10.149,133.946-14.615,166.497-21.597c3.39-0.727,8.773-2.753,10.264,1.633
		C1160.091,920.026,1141.54,918.155,999.225,933.912z M1048.046,907.843c9.254-11.999,18.234-23.643,28.541-37.007
		c1.596,9.554-5.667,11.942-8.233,16.741c-9.874,18.47,2.295,9.505,98.785,4.855C1161.428,901.076,1069.745,912.74,1048.046,907.843
		z M1174.668,882.343c-5.813,0.21-11.85,3.023-17.145-1.447c-2.255-1.904,3.187-9.42,8.771-7.11
		c4.658,1.927,9.263,3.944,14.157,0.798C1182.573,880.046,1180.282,882.141,1174.668,882.343z M1199.035,858.985
		c-6.637,4.709-7.829,15.99-18.668,15.344c0.016,0.041,0.021,0.072,0.037,0.113c-4.282-1.678-8.53-3.311-12.776-4.942
		c9.302-21.56,12.478-21.094,28.135-19.445C1201.523,850.66,1205.42,854.454,1199.035,858.985z M1205.955,845.942
		c-5.412-1.154-14.104-4.841-12.735-8.727c2.551-7.241,6.629-16.776,16.49-17.113c4.341-0.149,11.225-1.289,13.787,4.216
		C1223.722,829.706,1209.714,846.743,1205.955,845.942z M1225.768,818.722c-20.148-2.21-6.044-24.194,4.294-24.03
		c4.829,0.077,11.293-0.084,13.877,5.706C1244.05,804.972,1229.734,819.157,1225.768,818.722z M1261.892,778.633
		c-7.058,8.399-13.035,22.443-25.751,11.875c-4.734-3.934,3.938-2.97,3.2-6.665c-1.524-7.622,10.824-18.41,14.126-17.431
		C1263.095,768.626,1268.676,770.56,1261.892,778.633z M1325.111,696.769c-8.711,10.661-13.451,24.287-26.713,31.829
		c-11.614,6.604-16.44,39.967-36.215,35.525c-2.614-0.587-7.097-0.518-6.072-4.554c0.847-3.331,1.474-8.711,7.873-7.086
		c13.846,3.516-4.024-5.296,3.693-7.853c15.636-5.177,6.962-29.471,28.494-27.593c3.197,0.279,8.946,3.637,9.237-2.011
		c0.42-8.151-7.437,1.783-10.076-5.046c8.45-5.516,8.411-21.466,24.745-19.843C1325.104,690.637,1329.102,691.885,1325.111,696.769z
		 M1364.692,648.613c-4.356,4.371-6.44,11.417-13.987,11.905c-3.868,0.25-2.492,1.926-2.74,4.702
		c-0.884,9.905-8.95,15.563-15.603,21.662c-5.982,5.483-4.794-11.5-11.999-4.345c-2.941-3.669,1.514-5.13,2.53-7.404
		c3.596-8.044,11.532-10.53,19.026-13.39c-4.788-10.049,4.734-13.97,8.717-20.237c1.986-3.124,4.731-4.919,8.207-3.737
		c3.721,0.264,7.804-1.1,9.272,3.181C1369.202,644.121,1366.937,646.361,1364.692,648.613z M1370.435,634.829
		c-3.61-0.475-9.422,0.851-8.766-4.455c0.821-6.636,5.416-11.431,13.141-11.507C1391.054,618.71,1379.758,635.78,1370.435,634.829z
		 M1281.072,620.461c-21.945,28.355-43.455,57.093-67.575,83.703c4.706-18.169,44.665-58.19,74.412-101.759
		c16.83-24.651,29.35-2.536,62.98-3.408c11.083,9.06,24.288,5.441,39.544,14.97C1328.556,614.206,1316.749,574.366,1281.072,620.461
		z"/>
	<path d="M745.843,563.931c1.427-32.727-0.584-55.448,2.493-65.604c-0.172-0.483-0.257-1.037-0.217-1.669
		c0.23-3.711,0.212-7.603,1.106-11.25c-0.13-0.744-0.113-1.647,0.104-2.735c3.918-19.66,0.966-39.439,1.831-59.725
		c-6.297,1.26-4.967,5.653-5.026,8.979c-0.268,15.115-0.99,30.265-0.246,45.338c0.248,5.022-0.376,8.368-1.595,10.669
		c-0.053,5.408-0.212,10.815-0.228,16.224c-0.001,0.413-0.065,0.784-0.156,1.135c1.938,11.533,0.781,38.776-0.703,99.848
		C744.103,591.405,745.243,577.68,745.843,563.931z"/>
	<path d="M393.395,1088.88c-2.746-83.964,2.494-118.686-26.042-108.408c-7.116,2.563-4.436,6.32-2.941,62.359
		c3.319,124.294,1.608,116.046,6.063,115.907c5.966-0.186-0.224-12.227,6.596-11.356c4.974,0.635,4.547,3.675,3.215,24.588
		c-0.148,2.326,5.034,5.659-0.765,6.844c-12.68,2.591-15.521-91.309-6.891,113.736c0.438,10.404,17.72,21.187,26.452,15.929
		c6.91-4.16,2.468-2.207-2.938-159.413c-0.127-3.682-2.753-9.655-0.735-13.215c-1.048-3.224-1.634-7.96-0.762-11.797
		C394.021,1121.967,394.578,1125.021,393.395,1088.88z M371.143,1016.818c5.257,2.309,3.935,4.183,2.279,6.611
		C369.188,1023.435,369.777,1020.434,371.143,1016.818z M370.273,1046.42c0.792-5.049-2.389-10.023,2.454-13.587
		C377.585,1029.257,381.771,1040.395,370.273,1046.42z M377.639,1060.432c-0.448,5.616,2.692,11.063-2.505,15.403
		C372.158,1078.321,365.2,1063.198,377.639,1060.432z M375.241,1086.328c2.392,2.976,3.026,1.478-1.119,5.879
		C371.054,1088.212,372.633,1086.282,375.241,1086.328z M375.582,1099.724c1.651,0.818,2.636,2.982,3.667,4.251
		c0.283,3.235-2.049,2.868-3.275,2.772C370.489,1106.316,372.595,1098.246,375.582,1099.724z M375.754,1123.407
		c-4.793-2.428-2.935-6.316-1.989-10.028C383.639,1115.68,379.924,1125.52,375.754,1123.407z M375.199,1205.773
		c0.764-2.913-1.996-7.819,3.3-7.73c6.568,0.11,6.409,17.014-0.001,16.797C372.982,1214.654,376.357,1208.819,375.199,1205.773z
		 M379.891,1237.482c2.024,0.526,3.8,2.008,4.241,2.255c-0.348,4.382-1.247,5.903-3.28,5.615
		C375.459,1244.589,376.991,1236.728,379.891,1237.482z M382.372,1258.843c-0.139,0.896-1.522,1.599-2.785,2.785
		C376.048,1252.443,382.813,1255.989,382.372,1258.843z M385.249,1298.978c-6.566-1.932-5.383-6.162-5.793-9.097
		c-0.357-2.556-2.769-5.975,0.943-8.058c1.895-1.064,6.984-0.687,3.424,8.022C382.943,1291.998,384.549,1295.167,385.249,1298.978z
		 M391.957,1243.595c-2.196-3.139-2.044-6.045-0.084-9.242C394.335,1237.525,393.825,1240.433,391.957,1243.595z"/>
	<path d="M655.23,1048.203c0-0.116,0-0.475,0-0.85C655.231,1047.826,655.23,1048.103,655.23,1048.203z"/>
	<path d="M668.718,68.903c19.678,25.796,17.495,30.161,30.127,9.283c35.594-58.834,32.973-60.971,42.007-60.775
		c-50.577,86.948-52.045,92.826-60.128,78.561c-4.796-8.465-11.98-15.808-12.945-26.179L668.718,68.903z"/>
	<path d="M667.779,69.792C654.514,55.88,648.977,37.78,641.14,20.905c9.774,15.684,20.955,30.539,27.578,47.998
		C668.718,68.903,667.779,69.792,667.779,69.792z"/>
	<path d="M624.165,1510.509c14.063,8.482,36.608,32.276,52.115,35.714c6.217,1.378,8.211,5.586,7.826,11.448
		C671.216,1548.972,646.188,1538.181,624.165,1510.509z"/>
	<path d="M581.076,1481.614c1.544-0.528,3.36-1.855,4.473,0.311c9.883,19.221,25.407,33.785,39.282,49.777
		c-47.912-33.083-81.836-78.471-112.2-126.994c1.092-0.878,2.183-1.757,3.275-2.635c38.807,56.373,20.853,32.607,67.152,89.198
		c1.367-5.025-0.216-7.362-1.856-9.685L581.076,1481.614z"/>
	<path d="M605.384,1363.775c41.176,76.388,24.524,49.955,76.956,129.504c4.807,7.292,15.167,8.99,18.076,18.38
		c1.42,4.584,6.092,8.364,2.394,15.017c-27.361-31.244-45.226-63.331-98.145-148.486
		C601.618,1373.286,599.808,1368.682,605.384,1363.775z"/>
	<path d="M581.202,1481.585c-35.181-68.656-37.879-70.408-35.937-81.673c12.969,37.857,41.282,64.772,68.84,96.189
		c-10.4-2.408-9.534-4.59-34.37-31.912c-1.304,6.651,5.695,11.79,1.361,17.411C581.076,1481.614,581.202,1481.585,581.202,1481.585z
		"/>
	<path d="M802.423,1528.655c9.367-24.982,29.988-43.006,47.67-112.637c0.548-2.159,1.411-4.027,5.606-5.489
		c-10.444,43.618-25.639,83.796-52.032,119.246C803.253,1529.401,802.838,1529.028,802.423,1528.655z"/>
	<path d="M673.898,1508.15c-13.927,1.104-50.035-58.552-55.961-70.756c-1.002-2.063-1.615-3.926,1.059-5.842
		c11.884,17.623,23.975,35.083,35.53,52.891c5.61,8.646,15.541,13.746,19.042,23.978L673.898,1508.15z"/>
	<path d="M511.011,1360.761c37.53,71.735,36.445,67.604,32.252,69.613c-4.331,2.075-16.5-28.89-27.227-42.964
		C510.294,1379.874,512.502,1369.615,511.011,1360.761z"/>
	<path d="M793.589,1533.916c-9.254,2.836-11.896,15.77-26.724,15.813c23.253-17.234,29.629-41.639,39.963-66.355
		c7.137,18.937-15.367,40.216-13.657,50.908C793.186,1534.27,793.589,1533.916,793.589,1533.916z"/>
	<path d="M688.752,1542.482c-26.97-11.171-65.156-56.553-69.413-70.24c21.296,25.34,43.207,49.94,70.098,69.46L688.752,1542.482z"/>
	<path d="M706.622,1426.343c3.849,29.641,7.699,59.281,11.548,88.922c-10.716-28.862-9.655-59.294-15.561-88.783
		C703.947,1426.436,705.284,1426.39,706.622,1426.343z"/>
	<path d="M666.633,1449.575c14.622,13.233,22.339,31.098,30.389,48.776C687.132,1481.953,671.076,1469.78,666.633,1449.575z"/>
	<path d="M673.567,1508.42c9.642,7.782,19.284,15.564,28.926,23.346c-0.901,1.006-1.802,2.011-2.704,3.017
		c-7.764-9.838-22.584-11.879-25.902-26.625C673.898,1508.15,673.567,1508.42,673.567,1508.42z"/>
	<path d="M712.819,1535.641c3.69,5.964,5.743,9.454,3.776,15.062C714.226,1546.145,711.991,1542.708,712.819,1535.641z"/>
	<path d="M689.436,1541.702c4.239,0.556,7.483,2.551,10.584,7.087c-6.775,1.413-8.788-2.859-11.268-6.307L689.436,1541.702z"/>
	<path d="M1018.332,1010.189c0,60.743-1.057,174.932,3.087,269.117c1.187,26.983-26.189,11.53-81.693,21.573
		c-19.778,3.579-7.778-211.057-14.05-334.27c-0.924-18.159,16.441-8.895,78.84-14.837c14.537-1.384,11.264,3.281,11.264,58.413
		C1016.63,1010.186,1017.481,1010.188,1018.332,1010.189z M993.84,1056.746c2.387-11.295,0.285-15.333-9.606-15.415
		c-11.117-0.092-10.246,6.522-9.864,13.45c3.81,69.121-3.643,74.13,5.38,74.936c4.073,0.364,12.141,0.173,11.395-2.349
		c-2.238-7.572,5.41-11.749,4.005-18.809c-1.818-9.129,3.143-19.44-4.821-27.588C998.949,1073.08,988.681,1062.128,993.84,1056.746z
		 M1001.293,1159.86c4.384-2.771,10.064-3.363,9.771-9.647c-1.322-28.361,0.695-56.776-1.374-85.157
		c-0.295-4.043-4.056-6.927-2.275-11.331c6.565-16.23,1.22-32.913,1.467-49.388c0.093-6.213-8.975-5.296-9.297,0.168
		c-2.269,38.44,5.784,13.899,1.197,44.607c-2.52,16.872,2.332,70.484,2.332,70.484
		C997.733,1133.565,1002.739,1146.398,1001.293,1159.86z M952.7,1077.833c-1.519,15.44,0.289,30.82,0.496,46.224
		c0.088,6.516,2.815,6.818,7.793,6.376c5.314-0.471,10.28-0.022,9.788-8.113c-4.869-80.189,3.256-81.563-9.733-80.437
		C944.878,1043.283,956.787,1050.753,952.7,1077.833z M932.999,1086.539c0.2,0,0.4,0,0.599,0c0,42.046-2.428,44.971,7.455,45.186
		c3.779,0.082,7.686-1.45,6.961-5.61c-2.753-15.789,2.78-31.561-0.319-47.258c-5.256-26.626,6.108-35.999-5.878-36.353
		C930.314,1042.164,932.999,1047.132,932.999,1086.539z M967.891,961.833c-13.278,9.741-20.107-31.236-16.078,68.104
		c0.424,10.443,21.031,8.903,17.041,0.698c-4.47-9.191,5.273-22.264-8.344-28.994c-9.491-4.69,23.768-13.811,0.29-30.665
		c-0.838-0.602-1.057-2.067-1.471-2.934C961.779,964.91,966.656,968.122,967.891,961.833z M972.518,1212.046
		c-1.248-10.368-18.987-8.975-18.87,0.405c0.745,59.435-1.31,62.192,11.849,58.678c3.122-0.833,8.725-0.95,6.468-5.514
		c-4.157-8.408,8.347-19.44-4.53-26.021c-0.198-0.101,0.233-2.627,0.995-3.224C974.267,1231.8,972.638,1213.047,972.518,1212.046z
		 M959.87,1164.862c15.095-3.374,6.364-13.404,8.368-20.085c4.582-15.279-24.11-13.456-11.642,4.934
		c1.254,1.85-0.127,2.734-0.775,4.257c-5.072,11.922-1.532,24.465-2.064,36.724c-0.29,6.687,12.784,13.327,17.239,8.222
		C978.463,1190.356,973.363,1170.403,959.87,1164.862z M932.935,1014.529c0,18.315-1.768,23.49,7.225,23.951
		c2.248,0.115,5.506-0.957,4.976-2.875c-3.377-12.243,5.48-23.573,2.064-35.842c-3.436-12.345,0.261-37.363-6.896-36.757
		c-3.101,0.262-8.235,0.294-7.216,5.122c1.683,7.968-6.047,18.131,5.279,23.884c1.501,0.762,1.637,2.592,0.683,2.938
		C927.476,999.155,935.345,1009.071,932.935,1014.529z M948.385,1155.414c0-16.784,1.62-18.49-6.696-19.271
		c-9.714-0.913-7.55-0.277-6.446,61.409c0.068,3.821,2.226,4.869,5.888,4.89c5.464,0.032,3.848-2.638,2.746-5.612
		c-1.062-2.865,12.403-13.152,1.483-20.079c-1.645-1.044-3.2-2.965-1.66-3.792C952.132,1168.434,946.843,1160.769,948.385,1155.414z
		 M993.201,981.681c-4.396-5.139,5.743-20.05-11.596-21.194c-7.999-0.527-12.151,3.029-9.235,10.21
		c3.22,7.93-10.057,23.008,10.463,23.867C991.697,994.936,994.765,992.234,993.201,981.681z M993.523,1015.289
		c-1.131-12.607-1.259-10.283-13.969-12.259c-6.445-1.002-6.557-0.987-6.387,4.266c0.852,26.281-0.386,29.081,8.338,29.478
		C993.496,1037.321,995.246,1034.48,993.523,1015.289z M994.269,1180.08c0.176-0.016,0.351-0.033,0.527-0.049
		c0-10.679,1.452-14.825-9.054-13.261c-3.572,0.532-9.764,1.047-8.117,5.772c4.098,11.751-8.939,26.823,8.598,27.645
		C998.494,1200.762,995.647,1192.21,994.269,1180.08z M996.761,1218.13c-1.968-2.473,3.173-12.594-4.792-12.204
		c-6.065,0.297-17.907,2.264-14.995,14.969c1.314,5.732-3.903,14.993,8.195,14.956C995.761,1235.82,998.23,1229.614,996.761,1218.13
		z M997.324,1245.634c-0.794-7.348-6.025-5.289-10.715-5.216c-21.482,0.334,2.666,15.286-7.192,26.899
		c-0.99,1.167,2.702,2.431,4.872,2.6C995.352,1270.78,999.68,1267.448,997.324,1245.634z M976.169,1148.211
		c-0.275,7.073-2.529,15.199,10.453,14.546c14.718-0.74,10.05-25.342-2.719-27.715
		C973.899,1133.182,974.958,1141.114,976.169,1148.211z M1000.952,1285.849c-1.322,0.773-2.643,1.546-3.965,2.319
		c1.956-11.193-0.849-15.658-11.141-13.81c-10.156,1.824,1.435,11.517-5.929,13.512c5.008,7.198,22.321,0.696,27.599,0.433
		c7.306-0.363,6.601-5.22,6.254-9.99c-0.278-3.824-1.736-6.564-6.335-6.068c-6.351,0.684-5.837,4.626-4.84,9.251
		C1002.869,1282.77,1001.543,1284.389,1000.952,1285.849z M934.776,1222.436c2.271,5.095-3.593,14.947,5.808,15.449
		c8.681,0.464,9.834-9.259,8.957-15.629c-0.695-5.047,3.409-14.404-6.612-14.983C930.88,1206.577,937.099,1216.815,934.776,1222.436
		z M1012.635,1180.603c-2.092-3.184,4.005-12.13-3.355-12.588c-6.677-0.416-8.95,7.565-8.181,14.606
		c0.524,4.801-4.162,14.773,5.301,15.452C1014.244,1198.636,1012.635,1193.853,1012.635,1180.603z M997.688,972.201
		c0.766,16.87-0.083,19.844,5.465,19.83c7.028-0.018,3.521-6.031,4.881-9.423c1.594-3.975-5.658-7.67,0.249-11.286
		c10.546-6.457-8.158-20.242-10.531-3.129C997.405,970.692,997.688,973.28,997.688,972.201z M1010.073,1205.08
		c-8.153-1.659-15.613,15.034-3.776,15.065c3.733,0.01,3.38,4.263-0.954,5.282c-12.533,2.946,4.084,13.527,6.749,4.768
		C1013.554,1225.392,1014.972,1206.077,1010.073,1205.08z M950.329,1257.518c0.336-7.46,1.677-15.163-8.908-14.897
		c-7.561,0.19-5.205,6.431-5.089,10.344c0.199,6.732-1.258,15.962,8.797,16.321C954.139,1269.607,949.37,1261.421,950.329,1257.518z
		 M962.397,1292.31c5.73-0.21,11.736-0.109,11.318-8.483C972.523,1259.953,941.39,1292.611,962.397,1292.31z M1014.656,1253.671
		c-1.454-11.691-0.398-15.435-6.353-14.753c-10.118,1.159,5.11,5.94-2.485,10.656c-9.38,5.826-1.889,20.3,4.318,17.4
		C1016.082,1264.196,1013.186,1258.008,1014.656,1253.671z M950.403,1284.808c0.525-4.773-0.72-7.827-6.066-7.591
		c-4.735,0.209-8.617,0.946-6.918,7.328c0.996,3.743-0.889,9.208,6.231,8.647C949.236,1292.754,950.985,1289.652,950.403,1284.808z"
		/>
	<path d="M1117.328,996.688c-2.272-13.004,2.757-26.685-6.31-39.328c-4.533-1.119-14.31-3.945-17.194,6.655
		c-4.163,15.301-0.753,19.559,15.728,22.856c-12.734,5.984-20.55,13.781-14.779,28.773c3.13-1.84,5.055-10.902,11.442-1.863
		c2.331,3.298,13.433-0.51,9.796-12.344c6.633,8.765,7.593,70.997,6.732,82.232c-5.735,74.836,4.984,68.967-13.063,74.137
		c-5.248,1.503-14.13,2.323-14.894,5.184c-7.929,29.707-0.143,31.112,1.543,29.005c4.147-5.183,15.041,0.626,15.48-10.449
		c0.267-6.731-1.378-14.619,6.761-21.571c4.052,42.222,2.631,0.587,1.056,102.981c-0.177,11.512,3.174,9.417-75.577,29.167
		c-10.195,2.557-7.575,3.211-10.578-107.951c-6.063-224.403-4.739-219.958-4.739-219.958c-2.647-12.176,4.396-12.008,56.524-19.36
		c43.291-6.106,36.348-17.915,36.348,51.79C1120.179,996.659,1118.753,996.673,1117.328,996.688z M1073.079,1231.052
		c-8.172,3.904-20.607,4.64-14.341,19.301c0.11,0.257-0.324,0.765-0.535,1.137c-9.264,16.325,12.741,6.246,18.566,5.396
		c14.103-2.057,10.024-12.996,9.569-20.975c-0.605-10.595-9.044-2.989-13.694-4.516c18.263-10.822,22.15-35.223-3.945-28.15
		c-5.932,1.608-12.605,1.75-13.589,10.817C1053.574,1228.206,1055.52,1230.528,1073.079,1231.052z M1063.095,1168.105
		c-0.168-1.253-0.335-2.506-0.503-3.759c5.702-1.18,11.392-2.426,17.11-3.524c9.471-1.818,1.455-9.901,5.039-15.044
		c2.777-3.985,5.68-14.366-0.408-19.906c-5.136-4.674-29.289,6.861-27.827,13.193c2.463,10.667-2.205,20.652-0.744,30.41
		c3.453,23.055-2.818,30.805,6.279,30.138c39.177-2.871,23.861-44.641,18.896-34.747
		C1075.686,1175.33,1068.747,1165.154,1063.095,1168.105z M1039.465,1197.069c0.969,13.36,13.504,6.914,11.926-1.425
		c-2.538-13.415-4.289-27.423-1.123-40.194c2.814-11.352-12.252-21.553-0.575-32.643c0.536-0.509-1.788-8.065-0.27-12.685
		c0.759-2.31-1.49-4.309-3.681-4.32c-7.339-0.037-6.983,1.249-7.386,14.269C1038.355,1120.072,1039.465,1197.068,1039.465,1197.069z
		 M1054.001,1045.921c0.82,6.375-5.766,15.211,5.256,15.781c2.385,0.123,30.473-2.288,25.763-9.078
		c-4.463-6.433,23.82-40.381-26.725-21.722C1051.078,1033.566,1055.685,1041.521,1054.001,1045.921z M1086.157,974.119
		c-0.221-28.373-12.37-3.935-28.147-9.092c-3.55-1.16-6.851,4.369-5.597,8.315c1.842,5.796,5.289,10.655,0.441,17.027
		c-1.565,2.057,1.849,5.071,5.822,3.802c3.654-1.167,7.545-2.92,11.173-2.602C1083.629,992.776,1088.161,986.317,1086.157,974.119z
		 M1064.724,1086.594c4.272,12.674,12.833,5.903,20.433,3.719c1.638-0.471,3.417-23.514,2.03-24.656
		c-7.797-6.417-22.454,2.485-30.443,3.808c-5.117,0.848-1.687,9.873-2.208,15.14c-0.386,3.908-4.018,10.373,3.78,11.261
		C1065.351,1096.667,1059.044,1088.066,1064.724,1086.594z M1054.738,1112.591c-0.164,14.193,1.327,15.105,13.951,11.79
		c8.729-2.292,10.363-12.617,18.577-15.659c0.965-0.358,0.47-7.593-1.048-10.847c-1.923-4.124-6.458,0.158-20.47,2.163
		C1057.707,1101.189,1052.718,1104.541,1054.738,1112.591z M1104.584,1145.719c2.471,2.943,3.878,5.673,6.116,6.979
		c2.131,1.244,4.815-1.207,4.409-3.065c-2.41-11.036,0.872-22.008,1.536-33.213c-7.258,0.926-8.065,8.548-13.506,8.94
		c-10.649,0.767-12.09,1.862-10.45,11.693c1.392,8.345-4.091,18.289,5.646,19.198
		C1106.263,1156.993,1102.948,1150.108,1104.584,1145.719z M1084.134,995.477c-8.6-0.681-15.314,3.028-22.303,3.795
		c-9.286,1.02-8.565,6.693-8.381,12.6c0.178,5.689,5.666,7.906,8.671,11.761c7.406-5.957,19.684,2.901,25.229-8.143
		c1.567-3.12,1.425-7.002-2.558-8.797C1078.147,1003.7,1083.224,999.802,1084.134,995.477z M1093.255,1038.873
		c3.107,4.063-4.251,12.557,3.281,14.917c18.433,5.777,24.934-12.906,18.763-32.35c-2.332-7.348-8.813-0.031-13.422-0.058
		C1089.599,1021.311,1094.605,1031.306,1093.255,1038.873z M1046.008,1211.608c-6.245-3.678-5.979,6.834-3.184,14.908
		c3.425,9.892,0.033,21.048,0.243,31.572c0.094,4.717,5.866,9.961,1.11,15.222c-8.616,9.53,7.812,19.854,7.724,0.228
		C1051.647,1216.819,1053.817,1216.207,1046.008,1211.608z M1116.753,1070.418c-1.204-4.099,4.994-13.098-6.352-13.065
		c-9.227,0.027-17.455,3.881-16.832,14.636c0.307,5.303-4.72,13.872,4.091,16.114
		C1106.958,1090.47,1116.315,1081.442,1116.753,1070.418z M1036.463,1033.935c0.092,0,0.183,0,0.275,0
		c0,25.451-0.955,30.195,4.596,33.256c4.972,2.742,10.734-8.049,4.722-14.735c-3.921-4.36-6.974-9.121,0.201-14.977
		c2.219-1.811,6.836-11.183-2.557-15.21c-2.685-1.151-3.791-4.891,1.116-6.054c7.341-1.741,2.294-6.653,2.337-9.996
		c0.061-4.729-10.666-6.059-10.686,4.527C1036.453,1018.476,1036.463,1026.205,1036.463,1033.935z M1110.799,1090.439
		c-13.626-1.54-26.695,22.634-14.997,26.194C1108.349,1120.452,1126.475,1092.212,1110.799,1090.439z M1112.936,1240.008
		c-4.114-2.614-5.148,6.686-8.125,2.397c-2.496-3.595,0.2-7.155,4.959-8.127c5.167-1.056,4.056-4.904,2.974-8.1
		c-1.363-4.029-4.629-2.786-7.554-1.952c-23.839,6.796-10.96,11.727-13.783,22.256c-1.105,4.122,2.215,6.316,6.467,4.961
		C1104.188,1249.431,1114.73,1252.581,1112.936,1240.008z M1095.696,1224.361c4.031-3.695,4.443-16.644,13.399-5.619
		c1.056,1.3,4.465-1.355,4.243-4.651c-1.125-16.699-0.207-20.155-3.845-19.981c-5.987,0.286-0.357,7.711-4.223,9.98
		c-5.369,0.406,0.134-10.749-8.601-7.16C1087.583,1200.662,1090.725,1219.132,1095.696,1224.361z M1062.884,1280.428
		c32.217,1.292,27.096-27.055,14.31-18.042c-7.828,5.518-24.122-1.341-21.221,13.469
		C1056.683,1279.485,1058.48,1282.402,1062.884,1280.428z M1036.479,981.232c-0.018,0-0.037,0-0.055,0
		c0,12.636-0.716,16.153,3.089,16.064c1.941-0.045,5.256-0.802,5.558-1.902c2.176-7.904,7.731-15.258,4.145-24.242
		c-2.031-5.089-6.035-2.605-9.354-3.106C1034.804,967.281,1036.479,968.825,1036.479,981.232z M1114.342,1261.088
		c-0.984-3.001-0.661-11.076-5.239-8.397c-6.163,3.606-16.212,3.716-17.975,13.047c-0.926,4.904,3.147,7.663,7.251,6.089
		C1104.166,1269.607,1114.54,1273.853,1114.342,1261.088z M1040.438,1096.826c9.951,11.29,5.018-16.196,5.9-18.676
		c2.424-6.812-6.118-6.937-8.205-2.14C1036.36,1080.084,1034.885,1090.526,1040.438,1096.826z M1044.435,959.744
		c-3.514-0.695-6.536-1.137-7.849,3.648C1040.481,964.76,1042.366,962.49,1044.435,959.744z M1055.059,957.785
		c4.083,2.658,6.95,1.759,10.327-1.149C1061.49,955.5,1058.507,955.5,1055.059,957.785z"/>
	<path d="M1101.125,970.343c3.011,3.593,3.109,2.226,0.216,5.281C1098.275,972.596,1098.626,973.918,1101.125,970.343z"/>
	<path d="M886.646,889.411c-6.597,5.132-8.375,11.423-12.28,20.142c-2.691-11.11,5.015-41.16,5.726-51.567
		c-9.558,11.47-11.972,26.396-19.67,39.733c-3.126-2.12-4.814-10.264-10.735-3.496c-2.39,2.732-6.128,0.343-8.25-1.261
		c-3.745-2.831,0.332-5.398,1.603-7.561c17.561-29.889,28.576-61.961,32.676-96.391c5.337-44.823,91.134,136.265,57.874,117.489
		c-8.496-4.797-19.98-4.504-24.699-16.052c-1.76-4.307-5.318-0.75-7.839,2.043C895.32,898.841,889.834,900.302,886.646,889.411z"/>
	<path d="M746.441,781.473c-4.803-18.96,13.478-44.137,35.083-48.316c27.911-5.399,59.009,12.518,67.719,39.018
		C871.143,838.802,764.572,853.045,746.441,781.473z M846.337,782.439c-4.954-25.286-33.169-46.872-58.616-44.89
		c-26.071,2.031-41.173,29.354-26.796,50.185C793.371,834.746,852.996,816.428,846.337,782.439z"/>
	<path d="M955.207,889.724c-9.482-28.864-17.871-58.163-32.979-84.787C942.521,829.497,951.796,858.443,955.207,889.724z"/>
	<path d="M881.042,751.136c-11.828-3.984-16.685-16.795-27.03-22.628c10.716,5.4,21.717,10.458,26.764,22.893
		C880.776,751.402,881.042,751.136,881.042,751.136z"/>
	<path d="M797.21,554.214c-3.952,46.043-0.228,92.294-5.007,138.278c0-46.053,0-92.107,0-138.16
		C793.873,554.292,795.542,554.253,797.21,554.214z"/>
	<path d="M631.309,505.411c0,22.112,0,44.225,0,66.337c-0.384,0.006-0.768,0.012-1.151,0.019c0-22.113,0-44.227,0-66.34
		C630.541,505.421,630.925,505.416,631.309,505.411z"/>
	<path d="M631.619,427.678c0,22.297,0,44.593,0,66.89c-0.5,0.004-1,0.008-1.5,0.012c0-22.298,0-44.596,0-66.894
		C630.618,427.684,631.119,427.681,631.619,427.678z"/>
	<path d="M628.693,688.568c0-12.875,0-25.75,0-38.625C631.993,662.877,632.709,675.771,628.693,688.568z"/>
	<path d="M630.689,588.175c1.619,10.285,1.781,20.556-0.177,30.807C628.103,608.69,629.087,598.43,630.689,588.175z"/>
	<path d="M629.863,642.626c-0.251-5.442-1.481-8.271,0.911-10.695C631.691,634.744,632.302,637.556,629.863,642.626z"/>
	<path d="M282.33,716.023c4.354,1.156,6.702,9.578,2.018,8.857C279.004,724.056,277.917,716.519,282.33,716.023z"/>
	<path d="M468.494,724.986c-5.801-8.734,3.923-8.528,2.967-4.166C471.172,722.141,469.807,723.227,468.494,724.986z"/>
	<path d="M535.534,839.81c-7.602-2.403,4.148-8.162,2.57-1.546C537.925,839.016,536.248,839.412,535.534,839.81z"/>
	<path d="M505.083,791.638c1.181,5.126-3.837,6.242-4.788,3.267C499.051,791.016,504.102,787.384,505.083,791.638z"/>
	<path d="M555.04,1188.958c1.259,1.402,2.311,2.575,3.364,3.748c-4.755,2.313-6.549,0.641-6.388-1.428
		C552.071,1190.566,553.657,1189.972,555.04,1188.958z"/>
	<path d="M341.653,728.977c8.762-8.363,12.985,7.234,6.598,6.097C345.318,734.552,342.917,732.744,341.653,728.977z"/>
	<path d="M401.779,741.636c-0.681-0.725-2.024-1.492-2.145-2.419C398.678,731.911,411.21,739.577,401.779,741.636z"/>
	<path d="M497.024,1001.529c-0.161,12.273-19.878,6.408-4.363-2.754C495.312,997.209,496.385,999.188,497.024,1001.529z"/>
	<path d="M447.027,847.371c-4.135-8.718,3.814-6.612,2.829-2.787C449.613,845.529,448.293,846.196,447.027,847.371z"/>
	<path d="M410.833,670c-3.365-2.269-0.519-6.324,2.284-5.374C417.651,666.161,414.088,672.195,410.833,670z"/>
	<path d="M606.254,822.475c-3.41-0.097-3.784-6.909-0.136-6.927C609.441,815.531,609.546,822.569,606.254,822.475z"/>
	<path d="M611.108,782.124c4.452,10.017-4.143,13.134-4.861,6.205C606.008,786.022,606.825,784.222,611.108,782.124z"/>
	<path d="M547.733,779.312c-0.381-5.661,7.007-7.395,6.729-1.252C554.1,786.089,548.001,783.302,547.733,779.312z"/>
	<path d="M539.159,673.401c-8.909-0.405,3.245-15.384,3.339-4.712C542.517,670.873,541.343,672.645,539.159,673.401z"/>
	<path d="M587.889,997.977c-0.623-1.716-5.65-12.163,4.315-6.789C591.313,992.591,590.421,993.994,587.889,997.977z"/>
	<path d="M348.918,677.738c-3.206-0.994-2.813-7.776,1.426-6.598C351.857,671.561,352.956,677.833,348.918,677.738z"/>
	<path d="M325.457,679.318c0.14,10.72-10.911-2.91-3.395-2.314C323.35,677.106,324.525,678.639,325.457,679.318z"/>
	<path d="M107.927,755.351c-1.059,7.951-12.731-2.585-4.534-3.555C105.968,751.491,107.091,753.302,107.927,755.351z"/>
	<path d="M509.816,1096.908c0.557,7.003-8.869,5.434-9.57-2.646c-0.212-2.446,1.786-3.969,3.96-3.784
		C508.501,1090.844,507.679,1095.629,509.816,1096.908z"/>
	<path d="M479.128,1100.887c0.026,3.127-2.361,3.233-4.239,3.632c-7.007,1.49-7.635-5.602-0.659-5.619
		C476.154,1098.896,478.473,1098.219,479.128,1100.887z"/>
	<path d="M662.284,892.472c-4.693,0.568-4.673-3.898-0.404-5.754C665.909,884.966,666.617,891.947,662.284,892.472z"/>
	<path d="M676.086,1223.809c-6.384,12.135-13.134-2.577-3.004-3.034C674.97,1220.69,676.133,1221.751,676.086,1223.809z"/>
	<path d="M679.311,1304.325c-2.179,1.284-3.775,2.778-5.603,3.158c-4.814,1.002-1.264-7.247,3.061-6.131
		C677.609,1301.568,678.156,1302.916,679.311,1304.325z"/>
	<path d="M358.591,831.088c9.531,1.559-2.566,14.086-3.334,4.635C355.068,833.409,356.609,831.99,358.591,831.088z"/>
	<path d="M373.594,862.522c-5.51,8.486-8.304-3.161-2.738-2.033C371.804,860.681,372.578,861.733,373.594,862.522z"/>
	<path d="M451.407,1178.317c5.733-0.839,5.774,8.86,0.536,8.643C445.531,1186.693,447.705,1178.858,451.407,1178.317z"/>
	<path d="M678.349,1177.141c9.212,1.857-6.395,18.298-4.858,4.899C673.813,1179.244,675.609,1177.575,678.349,1177.141z"/>
	<path d="M627.249,1185.337c-0.894,1.276-1.413,2.847-2.235,3.025C620.475,1189.347,620.723,1180.249,627.249,1185.337z"/>
	<path d="M282.823,689.216c-10.612-4.948-3.594-13.034-2.028-11.589C284.132,680.705,286.168,684.229,282.823,689.216z"/>
	<path d="M953.043,685.738c-10.306-3.688-5.461-9.551-4.072-8.956C952.824,678.435,955.024,680.995,953.043,685.738z"/>
	<path d="M446.226,1051.394c10.405,1.96-2.574,13.392-3.545,4.49C442.403,1053.341,444.132,1052.178,446.226,1051.394z"/>
	<path d="M585.38,1047.478c0.684,5.591-3.664,3.826-5.201,0.147C578.73,1044.155,584.701,1041.93,585.38,1047.478z"/>
	<path d="M545.203,1047.46c-0.62-0.54-2.268-1.3-2.297-2.117c-0.131-3.689,7.139-7.805,6.423-2.311
		C549.044,1045.232,548.561,1047.344,545.203,1047.46z"/>
	<path d="M551.668,1060.745c-1.463,5.019-2.319,7.953-4.009,13.751C545.422,1067.84,544.905,1064.557,551.668,1060.745z"/>
	<path d="M991.017,780.995c-8.36,4.198-6.22-4.334-2.777-5.283C990.154,775.185,990.961,776.962,991.017,780.995z"/>
	<path d="M499.721,1298.56c-2.167,9.728-8.665-3.589-2.206-2.211C498.421,1296.542,499.083,1297.884,499.721,1298.56z"/>
	<path d="M944.881,778.714c6.807,0.009,5.533,11.366-1.218,2.553C943.383,780.902,944.504,779.462,944.881,778.714z"/>
	<path d="M427.717,1005.07c-2.962-9.985-2.962-9.985,3.739-15.14C434.338,995.915,429.853,998.865,427.717,1005.07z"/>
	<path d="M435.309,1001.517c-0.483-4.884,7.794-6.49,7.492-1.032C442.444,1006.932,435.752,1005.994,435.309,1001.517z"/>
	<path d="M591.968,1114.022c-3.546,8.328-9.967-5.275-2.303-2.039C590.613,1112.383,591.299,1113.404,591.968,1114.022z"/>
	<path d="M592.024,1101.24c-5.93-5.257,3.916-6.284,3.907-3.168C595.926,1099.923,594.739,1101.235,592.024,1101.24z"/>
	<path d="M898.424,684.117c-9.197,3.344-8.716-3.267-4.751-3.129C894.585,681.02,895.461,682.102,898.424,684.117z"/>
	<path d="M384.355,891.594c3.381,2.561,7.629,5.353,11.236,8.812c0.902,0.866-2.161,3.528-3.044,2.542
		c-3.356-3.749-10.689-1.5-11.865-7.983C380.374,893.257,381.12,891.618,384.355,891.594z"/>
	<path d="M860.86,688.218c-4.643-5.889,1.29-7.646,2.335-3.844C863.619,685.918,863.38,687.557,860.86,688.218z"/>
	<path d="M588.904,1233.719c-2.706,6.429-6.416,4.315-6.134,0.291C583.16,1228.457,590.592,1229.709,588.904,1233.719z"/>
	<path d="M55.92,719.959c4.047-3.334,7.021-3.017,10.723-1.763C63.686,723.418,60.476,721.047,55.92,719.959z"/>
	<path d="M588.071,1202.135c-6.137-0.33-5.982-4.501-2.066-4.731C591.466,1197.083,590.704,1202.277,588.071,1202.135z"/>
	<path d="M628.675,1005.572c14.049-15.091,22.793,13.524,9.373,4.979C635.389,1008.858,632.478,1007.563,628.675,1005.572z"/>
	<path d="M664.199,995.117c6.705,5.785-5.087,6.214-4.822,3.608C659.628,996.243,661.816,995.763,664.199,995.117z"/>
	<path d="M671.47,1105.971c-0.409,4.917-5.402,3.261-5.457,1.378C665.967,1105.807,667.25,1103.115,671.47,1105.971z"/>
	<path d="M597.671,1273.234c-0.917,3.814-7.829,4.059-6.874-0.719C591.433,1269.332,598.512,1269.738,597.671,1273.234z"/>
	<path d="M604.122,1264.03c-1.001-0.497-2.556-4.15,2.256-4.272C610.453,1259.654,607.578,1265.748,604.122,1264.03z"/>
	<path d="M668.219,1059.303c-0.029,5.373-6.323,4.235-4.919,0.185c0.464-1.337,1.882-3.044,3.118-3.266
		C668.924,1055.773,667.826,1058.246,668.219,1059.303z"/>
	<path d="M547.699,1139.848c-2.367,0.476-6.176-2.97,1.504-6.642C551.994,1131.872,552.13,1138.957,547.699,1139.848z"/>
	<path d="M741.84,1238.478c-3.712-0.76-4.744-7.568,0.511-7.582C747.628,1230.882,746.771,1239.488,741.84,1238.478z"/>
	<path d="M637.573,1229.911c4.694-8.395,12.075-1.785,10.308-0.209C644.975,1232.293,641.705,1231.844,637.573,1229.911z"/>
	<path d="M620.345,1229.72c1.202-1.155,2.246-2.598,3.656-3.375C627.014,1224.685,629.415,1233.628,620.345,1229.72z"/>
	<path d="M765.625,1170.729c-1.297-1.439-2.36-2.619-3.424-3.8c1.269-1.019,2.397-2.501,3.842-2.939
		c1.803-0.546,3.55,0.726,3.059,2.671C768.748,1168.06,767.066,1169.124,765.625,1170.729z"/>
	<path d="M742.238,1033.887c-6.526-0.742-2.286-7.513-0.25-6.993C747.393,1028.272,746.22,1034.34,742.238,1033.887z"/>
	<path d="M555.99,1300.017c-2.545,1.154-5.012-3.596-0.193-6.337C559.066,1291.821,562.117,1297.239,555.99,1300.017z"/>
	<path d="M170.859,819.193c5.981,2.217,2.902,5.208-0.015,4.195c-1-0.348-1.644-1.721-2.443-2.645
		C169.306,820.172,170.212,819.601,170.859,819.193z"/>
	<path d="M1114.511,878.542c-4.709,1.13-5.944-2.918-8.175-5.485C1110.089,873.353,1115.187,871.644,1114.511,878.542z"/>
	<path d="M986.08,1085.948c0.8,3.699-5.404,3.189-5.99,1.108C978.921,1082.899,985.297,1082.329,986.08,1085.948z"/>
	<path d="M964.235,1231.867c-5.915-0.526-2.687-11.177,1.561-2.215C966.005,1230.094,964.686,1231.26,964.235,1231.867z"/>
	<path d="M965.545,1186.379c-9.349,4.095-6.219-2.851-4.754-2.842C961.773,1183.543,962.749,1184.611,965.545,1186.379z"/>
	<path d="M988.249,981.577c-6.645-0.138-8.378-3.629-10.692-6.195c-0.074-0.082,1.534-1.681,2.358-2.573
		C982.245,975.261,984.575,977.712,988.249,981.577z"/>
	<path d="M987.685,1023.506c-3.374,12.88-13.557-5.415-4.064-5.268C986.933,1018.289,987.445,1020.863,987.685,1023.506z"/>
	<path d="M947.181,1255.437c-6.569,14.748-9.097-1.128-2.263-0.42C946.282,1255.158,946.676,1256.454,947.181,1255.437z"/>
	<path d="M1066.284,1044.036c1.78,2.228,3.798,2.762-0.008,5.182c-0.209,0.133-1.722-0.993-1.657-1.374
		C1064.806,1046.746,1065.491,1045.733,1066.284,1044.036z"/>
	<path d="M1066.548,1078.798c-1.045,4.786-6.424,5.617-6.536,0.2C1059.899,1073.551,1067.424,1074.787,1066.548,1078.798z"/>
	<path d="M1069.306,1013.499c-0.375,3.385-6.137,5.689-6.497,0.902C1062.429,1009.356,1069.649,1010.397,1069.306,1013.499z"/>
	<path d="M1106.921,1030.039c-9.114,2.803-6.602-4.628-2.596-3.1C1105.28,1027.303,1105.848,1028.679,1106.921,1030.039z"/>
	<path d="M1096.231,1231.807c7.337,5.66-0.802,6.951-1.957,2.991C1094.078,1234.13,1095.383,1233.025,1096.231,1231.807z"/>
</g>
</svg>
