<svg xmlns="http://www.w3.org/2000/svg" viewBox="0 0 2350 750">
  <style>
    .keyboardtext {
      font: bold 40px sans-serif;
    }
    .keyboardtextsmall {
      font: bold 25px sans-serif;
    }
  </style>
  <defs>
    <linearGradient id="KeyboardColor" x1="0%" y1="100%" x2="100%" y2="0%" >
      <stop offset="0%" style="stop-color:rgb(144,144,166);stop-opacity:1" />
      <stop offset="100%" style="stop-color:rgb(189,189,217);stop-opacity:1" />
    </linearGradient>

    <linearGradient id="KeyStrokeColor" x1="0%" y1="100%" x2="100%" y2="0%" >
      <stop offset="0%" style="stop-color:rgb(100,100,115);stop-opacity:1" />
      <stop offset="100%" style="stop-color:rgb(144,144,166);stop-opacity:1" />
    </linearGradient>

    <linearGradient id="KeyColor" x1="0%" y1="100%" x2="100%" y2="0%" >
      <stop offset="0%" style="stop-color:rgb(225,225,237);stop-opacity:1" />
      <stop offset="100%" style="stop-color:rgb(250,250,252);stop-opacity:1" />
    </linearGradient>
  </defs>

  <rect x="10" y="10" width="2330" height="730" rx="25" ry="25" stroke="url(#KeyStrokeColor)" stroke-width="10px" fill="url(#KeyboardColor)" />

  <g transform="translate(50,50)">
    <rect width="95" height="95" rx="10" ry="10" stroke="url(#KeyStrokeColor)" stroke-width="5px" fill="url(#KeyColor)" />
    <text x="47.5" y="41" text-anchor="middle" class="keyboardtext">Esc</text>
  </g>

  <g transform="translate(200,50)">
    <rect width="95" height="95" rx="10" ry="10" stroke="url(#KeyStrokeColor)" stroke-width="5px" fill="url(#KeyColor)" />
    <text x="47.5" y="41" text-anchor="middle" class="keyboardtext">F1</text>
  </g>

  <g transform="translate(300,50)">
    <rect width="95" height="95" rx="10" ry="10" stroke="url(#KeyStrokeColor)" stroke-width="5px" fill="url(#KeyColor)" />
    <text x="47.5" y="41" text-anchor="middle" class="keyboardtext">F2</text>
  </g>

  <g transform="translate(400,50)">
    <rect width="95" height="95" rx="10" ry="10" stroke="url(#KeyStrokeColor)" stroke-width="5px" fill="url(#KeyColor)" />
    <text x="47.5" y="41" text-anchor="middle" class="keyboardtext">F3</text>
  </g>

  <g transform="translate(500,50)">
    <rect width="95" height="95" rx="10" ry="10" stroke="url(#KeyStrokeColor)" stroke-width="5px" fill="url(#KeyColor)" />
    <text x="47.5" y="41" text-anchor="middle" class="keyboardtext">F4</text>
  </g>

  <g transform="translate(650,50)">
    <rect width="95" height="95" rx="10" ry="10" stroke="url(#KeyStrokeColor)" stroke-width="5px" fill="url(#KeyColor)" />
    <text x="47.5" y="41" text-anchor="middle" class="keyboardtext">F5</text>
  </g>

  <g transform="translate(750,50)">
    <rect width="95" height="95" rx="10" ry="10" stroke="url(#KeyStrokeColor)" stroke-width="5px" fill="url(#KeyColor)" />
    <text x="47.5" y="41" text-anchor="middle" class="keyboardtext">F6</text>
  </g>

  <g transform="translate(850,50)">
    <rect width="95" height="95" rx="10" ry="10" stroke="url(#KeyStrokeColor)" stroke-width="5px" fill="url(#KeyColor)" />
    <text x="47.5" y="41" text-anchor="middle" class="keyboardtext">F7</text>
  </g>

  <g transform="translate(950,50)">
    <rect width="95" height="95" rx="10" ry="10" stroke="url(#KeyStrokeColor)" stroke-width="5px" fill="url(#KeyColor)" />
    <text x="47.5" y="41" text-anchor="middle" class="keyboardtext">F8</text>
  </g>

  <g transform="translate(1100,50)">
    <rect width="95" height="95" rx="10" ry="10" stroke="url(#KeyStrokeColor)" stroke-width="5px" fill="url(#KeyColor)" />
    <text x="47.5" y="41" text-anchor="middle" class="keyboardtext">F9</text>
  </g>

  <g transform="translate(1200,50)">
    <rect width="95" height="95" rx="10" ry="10" stroke="url(#KeyStrokeColor)" stroke-width="5px" fill="url(#KeyColor)" />
    <text x="47.5" y="41" text-anchor="middle" class="keyboardtext">F10</text>
  </g>

  <g transform="translate(1300,50)">
    <rect width="95" height="95" rx="10" ry="10" stroke="url(#KeyStrokeColor)" stroke-width="5px" fill="url(#KeyColor)" />
    <text x="47.5" y="41" text-anchor="middle" class="keyboardtext">F11</text>
  </g>

  <g transform="translate(1400,50)">
    <rect width="95" height="95" rx="10" ry="10" stroke="url(#KeyStrokeColor)" stroke-width="5px" fill="url(#KeyColor)" />
    <text x="47.5" y="41" text-anchor="middle" class="keyboardtext">F12</text>
  </g>

  <g transform="translate(1550,50)">
    <rect width="95" height="95" rx="10" ry="10" stroke="url(#KeyStrokeColor)" stroke-width="5px" fill="url(#KeyColor)" />
    <text x="47.5" y="41" text-anchor="middle" class="keyboardtextsmall">Print</text>
    <text x="47.5" y="70" text-anchor="middle" class="keyboardtextsmall">Screen</text>
  </g>

  <g transform="translate(1650,50)">
    <rect width="95" height="95" rx="10" ry="10" stroke="url(#KeyStrokeColor)" stroke-width="5px" fill="url(#KeyColor)" />
    <text x="47.5" y="41" text-anchor="middle" class="keyboardtextsmall">Scroll</text>
    <text x="47.5" y="70" text-anchor="middle" class="keyboardtextsmall">Lock</text>
  </g>

  <g transform="translate(1750,50)">
    <rect width="95" height="95" rx="10" ry="10" stroke="url(#KeyStrokeColor)" stroke-width="5px" fill="url(#KeyColor)" />
    <text x="47.5" y="41" text-anchor="middle" class="keyboardtextsmall">Pause</text>
    <text x="47.5" y="70" text-anchor="middle" class="keyboardtextsmall">Break</text>
  </g>

  <g transform="translate(50,200)">
    <rect width="95" height="95" rx="10" ry="10" stroke="url(#KeyStrokeColor)" stroke-width="5px" fill="url(#KeyColor)" />
    <text x="47.5" y="41" text-anchor="middle" class="keyboardtext">~</text>
    <text x="47.5" y="83" text-anchor="middle" class="keyboardtext">`</text>
  </g>

  <g transform="translate(150,200)">
    <rect width="95" height="95" rx="10" ry="10" stroke="url(#KeyStrokeColor)" stroke-width="5px" fill="url(#KeyColor)" />
    <text x="47.5" y="41" text-anchor="middle" class="keyboardtext">!</text>
    <text x="47.5" y="83" text-anchor="middle" class="keyboardtext">1</text>
  </g>

  <g transform="translate(250,200)">
    <rect width="95" height="95" rx="10" ry="10" stroke="url(#KeyStrokeColor)" stroke-width="5px" fill="url(#KeyColor)" />
    <text x="47.5" y="41" text-anchor="middle" class="keyboardtext">@</text>
    <text x="47.5" y="83" text-anchor="middle" class="keyboardtext">2</text>
  </g>

  <g transform="translate(350,200)">
    <rect width="95" height="95" rx="10" ry="10" stroke="url(#KeyStrokeColor)" stroke-width="5px" fill="url(#KeyColor)" />
    <text x="47.5" y="41" text-anchor="middle" class="keyboardtext">#</text>
    <text x="47.5" y="83" text-anchor="middle" class="keyboardtext">3</text>
  </g>

  <g transform="translate(450,200)">
    <rect width="95" height="95" rx="10" ry="10" stroke="url(#KeyStrokeColor)" stroke-width="5px" fill="url(#KeyColor)" />
    <text x="47.5" y="41" text-anchor="middle" class="keyboardtext">$</text>
    <text x="47.5" y="83" text-anchor="middle" class="keyboardtext">4</text>
  </g>

  <g transform="translate(550,200)">
    <rect width="95" height="95" rx="10" ry="10" stroke="url(#KeyStrokeColor)" stroke-width="5px" fill="url(#KeyColor)" />
    <text x="47.5" y="41" text-anchor="middle" class="keyboardtext">%</text>
    <text x="47.5" y="83" text-anchor="middle" class="keyboardtext">5</text>
  </g>

  <g transform="translate(650,200)">
    <rect width="95" height="95" rx="10" ry="10" stroke="url(#KeyStrokeColor)" stroke-width="5px" fill="url(#KeyColor)" />
    <text x="47.5" y="41" text-anchor="middle" class="keyboardtext">^</text>
    <text x="47.5" y="83" text-anchor="middle" class="keyboardtext">6</text>
  </g>

  <g transform="translate(750,200)">
    <rect width="95" height="95" rx="10" ry="10" stroke="url(#KeyStrokeColor)" stroke-width="5px" fill="url(#KeyColor)" />
    <text x="47.5" y="41" text-anchor="middle" class="keyboardtext">&amp;</text>
    <text x="47.5" y="83" text-anchor="middle" class="keyboardtext">7</text>
  </g>

  <g transform="translate(850,200)">
    <rect width="95" height="95" rx="10" ry="10" stroke="url(#KeyStrokeColor)" stroke-width="5px" fill="url(#KeyColor)" />
    <text x="47.5" y="41" text-anchor="middle" class="keyboardtext">*</text>
    <text x="47.5" y="83" text-anchor="middle" class="keyboardtext">8</text>
  </g>

  <g transform="translate(950,200)">
    <rect width="95" height="95" rx="10" ry="10" stroke="url(#KeyStrokeColor)" stroke-width="5px" fill="url(#KeyColor)" />
    <text x="47.5" y="41" text-anchor="middle" class="keyboardtext">(</text>
    <text x="47.5" y="83" text-anchor="middle" class="keyboardtext">9</text>
  </g>

  <g transform="translate(1050,200)">
    <rect width="95" height="95" rx="10" ry="10" stroke="url(#KeyStrokeColor)" stroke-width="5px" fill="url(#KeyColor)" />
    <text x="47.5" y="41" text-anchor="middle" class="keyboardtext">)</text>
    <text x="47.5" y="83" text-anchor="middle" class="keyboardtext">0</text>
  </g>

  <g transform="translate(1150,200)">
    <rect width="95" height="95" rx="10" ry="10" stroke="url(#KeyStrokeColor)" stroke-width="5px" fill="url(#KeyColor)" />
    <text x="47.5" y="41" text-anchor="middle" class="keyboardtext">_</text>
    <text x="47.5" y="83" text-anchor="middle" class="keyboardtext">-</text>
  </g>

  <g transform="translate(1250,200)">
    <rect width="95" height="95" rx="10" ry="10" stroke="url(#KeyStrokeColor)" stroke-width="5px" fill="url(#KeyColor)" />
    <text x="47.5" y="41" text-anchor="middle" class="keyboardtext">+</text>
    <text x="47.5" y="83" text-anchor="middle" class="keyboardtext">=</text>
  </g>

  <g transform="translate(1350,200)">
    <!-- Backspace Key -->
    <rect width="150" height="95" rx="10" ry="10" stroke="url(#KeyStrokeColor)" stroke-width="5px" fill="url(#KeyColor)" />
    <text x="75" y="41" text-anchor="middle" class="keyboardtextsmall">Backspace</text>
    <text x="75" y="75" text-anchor="middle" class="keyboardtext">&#x02190;</text>
  </g>

  <g transform="translate(1550,200)">
    <rect width="95" height="95" rx="10" ry="10" stroke="url(#KeyStrokeColor)" stroke-width="5px" fill="url(#KeyColor)" />
    <text x="47.5" y="41" text-anchor="middle" class="keyboardtextsmall">Insert</text>
  </g>

  <g transform="translate(1650,200)">
    <rect width="95" height="95" rx="10" ry="10" stroke="url(#KeyStrokeColor)" stroke-width="5px" fill="url(#KeyColor)" />
    <text x="47.5" y="41" text-anchor="middle" class="keyboardtextsmall">Home</text>
  </g>

  <g transform="translate(1750,200)">
    <rect width="95" height="95" rx="10" ry="10" stroke="url(#KeyStrokeColor)" stroke-width="5px" fill="url(#KeyColor)" />
    <text x="47.5" y="41" text-anchor="middle" class="keyboardtextsmall">Page</text>
    <text x="47.5" y="70" text-anchor="middle" class="keyboardtextsmall">Up</text>
  </g>

  <g transform="translate(1900,200)">
    <rect width="95" height="95" rx="10" ry="10" stroke="url(#KeyStrokeColor)" stroke-width="5px" fill="url(#KeyColor)" />
    <text x="47.5" y="41" text-anchor="middle" class="keyboardtextsmall">Num</text>
    <text x="47.5" y="70" text-anchor="middle" class="keyboardtextsmall">Lock</text>
  </g>

  <g transform="translate(2000,200)">
    <rect width="95" height="95" rx="10" ry="10" stroke="url(#KeyStrokeColor)" stroke-width="5px" fill="url(#KeyColor)" />
    <text x="47.5" y="41" text-anchor="middle" class="keyboardtext">/</text>
  </g>

  <g transform="translate(2100,200)">
    <rect width="95" height="95" rx="10" ry="10" stroke="url(#KeyStrokeColor)" stroke-width="5px" fill="url(#KeyColor)" />
    <text x="47.5" y="41" text-anchor="middle" class="keyboardtext">*</text>
  </g>

  <g transform="translate(2200,200)">
    <rect width="95" height="95" rx="10" ry="10" stroke="url(#KeyStrokeColor)" stroke-width="5px" fill="url(#KeyColor)" />
    <text x="47.5" y="41" text-anchor="middle" class="keyboardtext">-</text>
  </g>

  <g transform="translate(50,300)">
    <!-- Tab Key -->
    <rect width="135" height="95" rx="10" ry="10" stroke="url(#KeyStrokeColor)" stroke-width="5px" fill="url(#KeyColor)" />
    <text x="67.5" y="41" text-anchor="middle" class="keyboardtext">Tab</text>
    <text x="67.5" y="75" text-anchor="middle" class="keyboardtext">&#x21E2;</text>
  </g>

  <g transform="translate(190,300)">
    <rect width="95" height="95" rx="10" ry="10" stroke="url(#KeyStrokeColor)" stroke-width="5px" fill="url(#KeyColor)" />
    <text x="47.5" y="41" text-anchor="middle" class="keyboardtext">Q</text>
  </g>

  <g transform="translate(290,300)">
    <rect width="95" height="95" rx="10" ry="10" stroke="url(#KeyStrokeColor)" stroke-width="5px" fill="url(#KeyColor)" />
    <text x="47.5" y="41" text-anchor="middle" class="keyboardtext">W</text>
  </g>

  <g transform="translate(390,300)">
    <rect width="95" height="95" rx="10" ry="10" stroke="url(#KeyStrokeColor)" stroke-width="5px" fill="url(#KeyColor)" />
    <text x="47.5" y="41" text-anchor="middle" class="keyboardtext">E</text>
  </g>

  <g transform="translate(490,300)">
    <rect width="95" height="95" rx="10" ry="10" stroke="url(#KeyStrokeColor)" stroke-width="5px" fill="url(#KeyColor)" />
    <text x="47.5" y="41" text-anchor="middle" class="keyboardtext">R</text>
  </g>

  <g transform="translate(590,300)">
    <rect width="95" height="95" rx="10" ry="10" stroke="url(#KeyStrokeColor)" stroke-width="5px" fill="url(#KeyColor)" />
    <text x="47.5" y="41" text-anchor="middle" class="keyboardtext">T</text>
  </g>

  <g transform="translate(690,300)">
    <rect width="95" height="95" rx="10" ry="10" stroke="url(#KeyStrokeColor)" stroke-width="5px" fill="url(#KeyColor)" />
    <text x="47.5" y="41" text-anchor="middle" class="keyboardtext">Y</text>
  </g>

  <g transform="translate(790,300)">
    <rect width="95" height="95" rx="10" ry="10" stroke="url(#KeyStrokeColor)" stroke-width="5px" fill="url(#KeyColor)" />
    <text x="47.5" y="41" text-anchor="middle" class="keyboardtext">U</text>
  </g>

  <g transform="translate(890,300)">
    <rect width="95" height="95" rx="10" ry="10" stroke="url(#KeyStrokeColor)" stroke-width="5px" fill="url(#KeyColor)" />
    <text x="47.5" y="41" text-anchor="middle" class="keyboardtext">I</text>
  </g>

  <g transform="translate(990,300)">
    <rect width="95" height="95" rx="10" ry="10" stroke="url(#KeyStrokeColor)" stroke-width="5px" fill="url(#KeyColor)" />
    <text x="47.5" y="41" text-anchor="middle" class="keyboardtext">O</text>
  </g>

  <g transform="translate(1090,300)">
    <rect width="95" height="95" rx="10" ry="10" stroke="url(#KeyStrokeColor)" stroke-width="5px" fill="url(#KeyColor)" />
    <text x="47.5" y="41" text-anchor="middle" class="keyboardtext">P</text>
  </g>

  <g transform="translate(1190,300)">
    <rect width="95" height="95" rx="10" ry="10" stroke="url(#KeyStrokeColor)" stroke-width="5px" fill="url(#KeyColor)" />
    <text x="47.5" y="41" text-anchor="middle" class="keyboardtext">&#x0007B;</text>
    <text x="47.5" y="83" text-anchor="middle" class="keyboardtext">&#x0005B;</text>
  </g>

  <g transform="translate(1290,300)">
    <rect width="95" height="95" rx="10" ry="10" stroke="url(#KeyStrokeColor)" stroke-width="5px" fill="url(#KeyColor)" />
    <text x="47.5" y="41" text-anchor="middle" class="keyboardtext">&#x0007D;</text>
    <text x="47.5" y="83" text-anchor="middle" class="keyboardtext">&#x0005D;</text>
  </g>

  <g transform="translate(1390,300)">
    <!-- \| Key -->
    <rect width="110" height="95" rx="10" ry="10" stroke="url(#KeyStrokeColor)" stroke-width="5px" fill="url(#KeyColor)" />
    <text x="55" y="41" text-anchor="middle" class="keyboardtext">|</text>
    <text x="55" y="83" text-anchor="middle" class="keyboardtext">&#x0005C;</text>
  </g>

  <g transform="translate(1550,300)">
    <rect width="95" height="95" rx="10" ry="10" stroke="url(#KeyStrokeColor)" stroke-width="5px" fill="url(#KeyColor)" />
    <text x="47.5" y="41" text-anchor="middle" class="keyboardtextsmall">Delete</text>
  </g>

  <g transform="translate(1650,300)">
    <rect width="95" height="95" rx="10" ry="10" stroke="url(#KeyStrokeColor)" stroke-width="5px" fill="url(#KeyColor)" />
    <text x="47.5" y="41" text-anchor="middle" class="keyboardtextsmall">End</text>
  </g>

  <g transform="translate(1750,300)">
    <rect width="95" height="95" rx="10" ry="10" stroke="url(#KeyStrokeColor)" stroke-width="5px" fill="url(#KeyColor)" />
    <text x="47.5" y="41" text-anchor="middle" class="keyboardtextsmall">Page</text>
    <text x="47.5" y="70" text-anchor="middle" class="keyboardtextsmall">Down</text>
  </g>

  <g transform="translate(1900,300)">
    <rect width="95" height="95" rx="10" ry="10" stroke="url(#KeyStrokeColor)" stroke-width="5px" fill="url(#KeyColor)" />
    <text x="47.5" y="41" text-anchor="middle" class="keyboardtext">7</text>
    <text x="47.5" y="70" text-anchor="middle" class="keyboardtextsmall">Home</text>
  </g>

  <g transform="translate(2000,300)">
    <rect width="95" height="95" rx="10" ry="10" stroke="url(#KeyStrokeColor)" stroke-width="5px" fill="url(#KeyColor)" />
    <text x="47.5" y="41" text-anchor="middle" class="keyboardtext">8</text>
    <text x="47.5" y="70" text-anchor="middle" class="keyboardtextsmall">&#x025B2;</text>
  </g>

  <g transform="translate(2100,300)">
    <rect width="95" height="95" rx="10" ry="10" stroke="url(#KeyStrokeColor)" stroke-width="5px" fill="url(#KeyColor)" />
    <text x="47.5" y="41" text-anchor="middle" class="keyboardtext">9</text>
    <text x="47.5" y="70" text-anchor="middle" class="keyboardtextsmall">PgUp</text>
  </g>

  <g transform="translate(2200,300)">
    <!-- Num Pad + Key -->
    <rect width="95" height="195" rx="10" ry="10" stroke="url(#KeyStrokeColor)" stroke-width="5px" fill="url(#KeyColor)" />
    <text x="47.5" y="97.5" text-anchor="middle" class="keyboardtext">+</text>
  </g>

  <g transform="translate(50,400)">
    <!-- Caps Lock -->
    <rect width="155" height="95" rx="10" ry="10" stroke="url(#KeyStrokeColor)" stroke-width="5px" fill="url(#KeyColor)" />
    <text x="77.5" y="41" text-anchor="middle" class="keyboardtext">Caps</text>
    <text x="77.5" y="75" text-anchor="middle" class="keyboardtext">Lock</text>
  </g>

  <g transform="translate(210,400)">
    <rect width="95" height="95" rx="10" ry="10" stroke="url(#KeyStrokeColor)" stroke-width="5px" fill="url(#KeyColor)" />
    <text x="47.5" y="41" text-anchor="middle" class="keyboardtext">A</text>
  </g>

  <g transform="translate(310,400)">
    <rect width="95" height="95" rx="10" ry="10" stroke="url(#KeyStrokeColor)" stroke-width="5px" fill="url(#KeyColor)" />
    <text x="47.5" y="41" text-anchor="middle" class="keyboardtext">S</text>
  </g>

  <g transform="translate(410,400)">
    <rect width="95" height="95" rx="10" ry="10" stroke="url(#KeyStrokeColor)" stroke-width="5px" fill="url(#KeyColor)" />
    <text x="47.5" y="41" text-anchor="middle" class="keyboardtext">D</text>
  </g>

  <g transform="translate(510,400)">
    <rect width="95" height="95" rx="10" ry="10" stroke="url(#KeyStrokeColor)" stroke-width="5px" fill="url(#KeyColor)" />
    <text x="47.5" y="41" text-anchor="middle" class="keyboardtext">F</text>
    <line x1="37.5" y1="80" x2="57.5" y2="80" stroke="gray" stroke-width="5px"/>
  </g>

  <g transform="translate(610,400)">
    <rect width="95" height="95" rx="10" ry="10" stroke="url(#KeyStrokeColor)" stroke-width="5px" fill="url(#KeyColor)" />
    <text x="47.5" y="41" text-anchor="middle" class="keyboardtext">G</text>
  </g>

  <g transform="translate(710,400)">
    <rect width="95" height="95" rx="10" ry="10" stroke="url(#KeyStrokeColor)" stroke-width="5px" fill="url(#KeyColor)" />
    <text x="47.5" y="41" text-anchor="middle" class="keyboardtext">H</text>
  </g>

  <g transform="translate(810,400)">
    <rect width="95" height="95" rx="10" ry="10" stroke="url(#KeyStrokeColor)" stroke-width="5px" fill="url(#KeyColor)" />
    <text x="47.5" y="41" text-anchor="middle" class="keyboardtext">J</text>
    <line x1="37.5" y1="80" x2="57.5" y2="80" stroke="gray" stroke-width="5px"/>
  </g>

  <g transform="translate(910,400)">
    <rect width="95" height="95" rx="10" ry="10" stroke="url(#KeyStrokeColor)" stroke-width="5px" fill="url(#KeyColor)" />
    <text x="47.5" y="41" text-anchor="middle" class="keyboardtext">K</text>
  </g>

  <g transform="translate(1010,400)">
    <rect width="95" height="95" rx="10" ry="10" stroke="url(#KeyStrokeColor)" stroke-width="5px" fill="url(#KeyColor)" />
    <text x="47.5" y="41" text-anchor="middle" class="keyboardtext">L</text>
  </g>

  <g transform="translate(1110,400)">
    <rect width="95" height="95" rx="10" ry="10" stroke="url(#KeyStrokeColor)" stroke-width="5px" fill="url(#KeyColor)" />
    <text x="47.5" y="41" text-anchor="middle" class="keyboardtext">:</text>
    <text x="47.5" y="83" text-anchor="middle" class="keyboardtext">;</text>
  </g>

  <g transform="translate(1210,400)">
    <rect width="95" height="95" rx="10" ry="10" stroke="url(#KeyStrokeColor)" stroke-width="5px" fill="url(#KeyColor)" />
    <text x="47.5" y="41" text-anchor="middle" class="keyboardtext">"</text>
    <text x="47.5" y="83" text-anchor="middle" class="keyboardtext">'</text>
  </g>

  <g transform="translate(1310,400)">
    <!-- Enter Key -->
    <rect width="190" height="95" rx="10" ry="10" stroke="url(#KeyStrokeColor)" stroke-width="5px" fill="url(#KeyColor)" />
    <text x="95" y="41" text-anchor="middle" class="keyboardtext">Enter</text>
  </g>

  <g transform="translate(1900,400)">
    <rect width="95" height="95" rx="10" ry="10" stroke="url(#KeyStrokeColor)" stroke-width="5px" fill="url(#KeyColor)" />
    <text x="47.5" y="41" text-anchor="middle" class="keyboardtext">4</text>
    <text x="47.5" y="70" text-anchor="middle" class="keyboardtextsmall">&#x25C0;</text>
  </g>

  <g transform="translate(2000,400)">
    <rect width="95" height="95" rx="10" ry="10" stroke="url(#KeyStrokeColor)" stroke-width="5px" fill="url(#KeyColor)" />
    <text x="47.5" y="41" text-anchor="middle" class="keyboardtext">5</text>
  </g>

  <g transform="translate(2100,400)">
    <rect width="95" height="95" rx="10" ry="10" stroke="url(#KeyStrokeColor)" stroke-width="5px" fill="url(#KeyColor)" />
    <text x="47.5" y="41" text-anchor="middle" class="keyboardtext">6</text>
    <text x="47.5" y="70" text-anchor="middle" class="keyboardtextsmall">&#x25B6;</text>
  </g>

  <g transform="translate(50,500)">
    <!-- Left Shift -->
    <rect width="200" height="95" rx="10" ry="10" stroke="url(#KeyStrokeColor)" stroke-width="5px" fill="url(#KeyColor)" />
    <text x="100" y="41" text-anchor="middle" class="keyboardtext">Shift</text>
  </g>

  <g transform="translate(255,500)">
    <rect width="95" height="95" rx="10" ry="10" stroke="url(#KeyStrokeColor)" stroke-width="5px" fill="url(#KeyColor)" />
    <text x="47.5" y="41" text-anchor="middle" class="keyboardtext">Z</text>
  </g>

  <g transform="translate(355,500)">
    <rect width="95" height="95" rx="10" ry="10" stroke="url(#KeyStrokeColor)" stroke-width="5px" fill="url(#KeyColor)" />
    <text x="47.5" y="41" text-anchor="middle" class="keyboardtext">X</text>
  </g>

  <g transform="translate(455,500)">
    <rect width="95" height="95" rx="10" ry="10" stroke="url(#KeyStrokeColor)" stroke-width="5px" fill="url(#KeyColor)" />
    <text x="47.5" y="41" text-anchor="middle" class="keyboardtext">C</text>
  </g>

  <g transform="translate(555,500)">
    <rect width="95" height="95" rx="10" ry="10" stroke="url(#KeyStrokeColor)" stroke-width="5px" fill="url(#KeyColor)" />
    <text x="47.5" y="41" text-anchor="middle" class="keyboardtext">V</text>
  </g>

  <g transform="translate(655,500)">
    <rect width="95" height="95" rx="10" ry="10" stroke="url(#KeyStrokeColor)" stroke-width="5px" fill="url(#KeyColor)" />
    <text x="47.5" y="41" text-anchor="middle" class="keyboardtext">B</text>
  </g>

  <g transform="translate(755,500)">
    <rect width="95" height="95" rx="10" ry="10" stroke="url(#KeyStrokeColor)" stroke-width="5px" fill="url(#KeyColor)" />
    <text x="47.5" y="41" text-anchor="middle" class="keyboardtext">N</text>
  </g>

  <g transform="translate(855,500)">
    <rect width="95" height="95" rx="10" ry="10" stroke="url(#KeyStrokeColor)" stroke-width="5px" fill="url(#KeyColor)" />
    <text x="47.5" y="41" text-anchor="middle" class="keyboardtext">M</text>
  </g>

  <g transform="translate(955,500)">
    <rect width="95" height="95" rx="10" ry="10" stroke="url(#KeyStrokeColor)" stroke-width="5px" fill="url(#KeyColor)" />
    <text x="47.5" y="41" text-anchor="middle" class="keyboardtext">&lt;</text>
    <text x="47.5" y="83" text-anchor="middle" class="keyboardtext">,</text>
  </g>

  <g transform="translate(1055,500)">
    <rect width="95" height="95" rx="10" ry="10" stroke="url(#KeyStrokeColor)" stroke-width="5px" fill="url(#KeyColor)" />
    <text x="47.5" y="41" text-anchor="middle" class="keyboardtext">&gt;</text>
    <text x="47.5" y="83" text-anchor="middle" class="keyboardtext">.</text>
  </g>

  <g transform="translate(1155,500)">
    <rect width="95" height="95" rx="10" ry="10" stroke="url(#KeyStrokeColor)" stroke-width="5px" fill="url(#KeyColor)" />
    <text x="47.5" y="41" text-anchor="middle" class="keyboardtext">?</text>
    <text x="47.5" y="83" text-anchor="middle" class="keyboardtext">/</text>
  </g>

  <g transform="translate(1255,500)">
    <!-- Right Shift -->
    <rect width="245" height="95" rx="10" ry="10" stroke="url(#KeyStrokeColor)" stroke-width="5px" fill="url(#KeyColor)" />
    <text x="122.5" y="41" text-anchor="middle" class="keyboardtext">Shift</text>
  </g>

  <g transform="translate(1650,500)">
    <rect width="95" height="95" rx="10" ry="10" stroke="url(#KeyStrokeColor)" stroke-width="5px" fill="url(#KeyColor)" />
    <text x="47.5" y="41" text-anchor="middle" class="keyboardtext">&#x25B2;</text>
  </g>

  <g transform="translate(1900,500)">
    <rect width="95" height="95" rx="10" ry="10" stroke="url(#KeyStrokeColor)" stroke-width="5px" fill="url(#KeyColor)" />
    <text x="47.5" y="41" text-anchor="middle" class="keyboardtext">1</text>
    <text x="47.5" y="70" text-anchor="middle" class="keyboardtextsmall">End</text>
  </g>

  <g transform="translate(2000,500)">
    <rect width="95" height="95" rx="10" ry="10" stroke="url(#KeyStrokeColor)" stroke-width="5px" fill="url(#KeyColor)" />
    <text x="47.5" y="41" text-anchor="middle" class="keyboardtext">2</text>
    <text x="47.5" y="70" text-anchor="middle" class="keyboardtextsmall">&#x25BC;</text>
  </g>

  <g transform="translate(2100,500)">
    <rect width="95" height="95" rx="10" ry="10" stroke="url(#KeyStrokeColor)" stroke-width="5px" fill="url(#KeyColor)" />
    <text x="47.5" y="41" text-anchor="middle" class="keyboardtext">3</text>
    <text x="47.5" y="70" text-anchor="middle" class="keyboardtextsmall">PgDn</text>
  </g>

  <g transform="translate(2200,500)">
    <!-- Num Pad Enter Key -->
    <rect width="95" height="195" rx="10" ry="10" stroke="url(#KeyStrokeColor)" stroke-width="5px" fill="url(#KeyColor)" />
    <text x="47.5" y="97.5" text-anchor="middle" class="keyboardtextsmall">Enter</text>
  </g>

  <g transform="translate(50,600)">
    <!-- Left Control Key -->
    <rect width="135" height="95" rx="10" ry="10" stroke="url(#KeyStrokeColor)" stroke-width="5px" fill="url(#KeyColor)" />
    <text x="67.5" y="41" text-anchor="middle" class="keyboardtext">Ctrl</text>
  </g>

  <g transform="translate(190,600)">
    <!-- Windows Key -->
    <rect width="95" height="95" rx="10" ry="10" stroke="url(#KeyStrokeColor)" stroke-width="5px" fill="url(#KeyColor)" />
    <path d="M17.5 25.4l24.8-2.7V46H17.5zM42.3 49v23.4L17.5 69v-20zm2.8-27l32.4-4.7v29H45.1zm32.4 27v29L45.1 73V49z"/>
  </g>

  <g transform="translate(290,600)">
    <!-- Left Alt Key -->
    <rect width="135" height="95" rx="10" ry="10" stroke="url(#KeyStrokeColor)" stroke-width="5px" fill="url(#KeyColor)" />
    <text x="67.5" y="41" text-anchor="middle" class="keyboardtext">Alt</text>
  </g>

  <g transform="translate(430,600)">
    <!-- Space Bar -->
    <rect width="590" height="95" rx="10" ry="10" stroke="url(#KeyStrokeColor)" stroke-width="5px" fill="url(#KeyColor)" />
    <text x="295" y="41" text-anchor="middle" class="keyboardtext">Space</text>
  </g>

  <g transform="translate(1025,600)">
    <!-- Right Alt Key -->
    <rect width="135" height="95" rx="10" ry="10" stroke="url(#KeyStrokeColor)" stroke-width="5px" fill="url(#KeyColor)" />
    <text x="67.5" y="41" text-anchor="middle" class="keyboardtext">Alt</text>
  </g>

  <g transform="translate(1165,600)">
    <!-- Right Windows Key -->
    <rect width="95" height="95" rx="10" ry="10" stroke="url(#KeyStrokeColor)" stroke-width="5px" fill="url(#KeyColor)" />
    <path d="M17.5 25.4l24.8-2.7V46H17.5zM42.3 49v23.4L17.5 69v-20zm2.8-27l32.4-4.7v29H45.1zm32.4 27v29L45.1 73V49z"/>
  </g>

  <g transform="translate(1265,600)">
    <!-- Menu Key -->
    <rect width="95" height="95" rx="10" ry="10" stroke="url(#KeyStrokeColor)" stroke-width="5px" fill="url(#KeyColor)" />
    <text x="47.5" y="41" text-anchor="middle" class="keyboardtext">&#x1f5cf;</text>
    <text x="47.5" y="70" text-anchor="middle" class="keyboardtextsmall">Menu</text>
  </g>

  <g transform="translate(1365,600)">
    <!-- Right Control Key -->
    <rect width="135" height="95" rx="10" ry="10" stroke="url(#KeyStrokeColor)" stroke-width="5px" fill="url(#KeyColor)" />
    <text x="67.5" y="41" text-anchor="middle" class="keyboardtext">Ctrl</text>
  </g>

  <g transform="translate(1550,600)">
    <rect width="95" height="95" rx="10" ry="10" stroke="url(#KeyStrokeColor)" stroke-width="5px" fill="url(#KeyColor)" />
    <text x="47.5" y="41" text-anchor="middle" class="keyboardtext">&#x25C0;</text>
  </g>

  <g transform="translate(1650,600)">
    <rect width="95" height="95" rx="10" ry="10" stroke="url(#KeyStrokeColor)" stroke-width="5px" fill="url(#KeyColor)" />
    <text x="47.5" y="41" text-anchor="middle" class="keyboardtext">&#x25BC;</text>
  </g>

  <g transform="translate(1750,600)">
    <rect width="95" height="95" rx="10" ry="10" stroke="url(#KeyStrokeColor)" stroke-width="5px" fill="url(#KeyColor)" />
    <text x="47.5" y="41" text-anchor="middle" class="keyboardtext">&#x25B6;</text>
  </g>

  <g transform="translate(1900,600)">
    <rect width="195" height="95" rx="10" ry="10" stroke="url(#KeyStrokeColor)" stroke-width="5px" fill="url(#KeyColor)" />
    <text x="97.5" y="41" text-anchor="middle" class="keyboardtext">0</text>
    <text x="97.5" y="70" text-anchor="middle" class="keyboardtextsmall">Ins</text>
  </g>

  <g transform="translate(2100,600)">
    <rect width="95" height="95" rx="10" ry="10" stroke="url(#KeyStrokeColor)" stroke-width="5px" fill="url(#KeyColor)" />
    <text x="47.5" y="41" text-anchor="middle" class="keyboardtext">.</text>
    <text x="47.5" y="70" text-anchor="middle" class="keyboardtextsmall">Del</text>
  </g>
</svg>
